<svg width="530" height="525" viewBox="0 0 530 525" fill="none" xmlns="http://www.w3.org/2000/svg">
<path d="M451.163 349.256V99.3068C451.163 94.1828 446.908 93.5901 441.727 93.3862L11.9863 72.3488C5.44483 72.0858 0.078125 76.602 0.078125 82.3835V358.614L451.163 349.256Z" fill="#97A6B7"/>
<path d="M0.078125 358.615V413.781C0.078125 419.563 5.44483 424.071 11.9863 423.791L439.81 401.953C444.99 401.736 451.163 401.046 451.163 395.92V347.652L0.078125 358.615Z" fill="#97A6B7"/>
<path d="M299.106 460.957C295.286 459.678 291.871 457.413 289.208 454.392C286.546 451.37 284.729 447.7 283.942 443.751L272.669 388.008L176.244 391.438L164.378 449.504C162.717 457.637 169.369 465.797 177.032 468.792L217.374 484.563C224.868 487.496 232.938 488.665 240.957 487.98L326.207 480.693C327.422 480.583 328.562 480.057 329.434 479.204C330.305 478.351 330.855 477.223 330.99 476.011C331.28 473.499 333.025 470.675 330.648 469.892L299.106 460.957Z" fill="#97A6B7"/>
<path d="M300.06 457.569C296.259 456.324 292.856 454.097 290.195 451.113C287.534 448.129 285.71 444.495 284.91 440.579L273.648 385.537L179.574 388.925L167.719 446.262C166.914 450.15 167.516 454.198 169.418 457.685C171.32 461.172 174.398 463.871 178.106 465.302L218.407 480.876C225.903 483.772 233.96 484.926 241.968 484.249L327.141 477.054C328.348 476.95 329.482 476.434 330.352 475.591C331.222 474.749 331.773 473.632 331.914 472.43C332.054 471.228 331.775 470.014 331.123 468.994C330.471 467.974 329.486 467.21 328.335 466.832L300.06 457.569Z" fill="url(#paint0_linear_178_3725)"/>
<path d="M454.304 99.3064V349.257L188.221 354.772L2.72656 358.615V82.3812C2.72656 76.6035 8.20578 72.0911 14.7416 72.3484L51.0478 73.8042L444.728 89.6204C449.917 89.8205 454.304 94.1823 454.304 99.3064Z" fill="url(#paint1_linear_178_3725)"/>
<path d="M16.25 120.826V336.603C16.25 341.988 21.2334 346.252 27.3114 346.079L435.19 334.489C440.057 334.352 444.032 330.309 444.032 325.505V133.058L16.25 120.826Z" fill="url(#paint2_linear_178_3725)"/>
<path d="M444.026 133.057V110.972C444.026 106.267 440.134 102.273 435.366 102.094L27.0885 86.8758C21.1382 86.6528 16.2578 90.7879 16.2578 96.0625V120.835L444.026 133.057Z" fill="#BFC8D6"/>
<path d="M46.095 104.027C46.095 105.881 44.4033 107.331 42.315 107.266C40.2267 107.201 38.5312 105.639 38.5312 103.779C38.5312 101.919 40.2305 100.471 42.3227 100.539C44.4148 100.608 46.095 102.173 46.095 104.027Z" fill="white"/>
<path d="M62.388 104.562C62.388 106.405 60.7173 107.848 58.6519 107.781C56.5864 107.714 54.9062 106.165 54.9062 104.317C54.9062 102.468 56.5845 101.028 58.6519 101.098C60.7192 101.169 62.388 102.72 62.388 104.562Z" fill="white"/>
<path d="M78.4936 105.09C78.4936 106.924 76.842 108.356 74.8013 108.292C72.7607 108.227 71.0977 106.685 71.0977 104.848C71.0977 103.011 72.7569 101.577 74.8013 101.647C76.8458 101.718 78.4936 103.257 78.4936 105.09Z" fill="white"/>
<path d="M454.304 347.652V395.92C454.304 401.042 449.948 405.412 444.768 405.639L429.129 406.3L14.7816 423.797C8.23821 424.075 2.72656 419.57 2.72656 413.785V358.615L187.67 354.126L454.304 347.652Z" fill="url(#paint3_linear_178_3725)"/>
<g style="mix-blend-mode:soft-light" opacity="0.1">
<path d="M429.047 406.294L14.7455 423.797C8.20397 424.075 2.73047 419.571 2.73047 413.785V82.3812C2.73047 76.6035 8.20969 72.0911 14.7455 72.3484L51.0517 73.8042C56.6206 77.5353 61.6059 82.1391 65.588 87.61C65.7654 87.852 65.9523 88.094 66.1163 88.3341C69.069 92.5311 71.375 97.1469 72.9572 102.028C73.6331 104.079 74.1946 106.166 74.6393 108.28C75.6405 112.948 76.1345 117.716 76.3405 122.549C76.781 132.759 75.9781 143.239 76.0201 153.563C76.1059 174.49 77.4161 195.402 91.3115 212.255C101.61 224.732 118.362 229.472 132.273 236.726C148.509 245.196 162.753 256.43 171.001 273.122C181.128 293.601 171.621 315.841 178.092 336.995C178.587 338.616 179.176 340.207 179.856 341.759C181.835 346.246 184.461 350.419 187.651 354.145C187.828 354.364 188.013 354.578 188.204 354.791C200.585 369.008 220.406 377.89 237.587 382.189C272.845 391 309.412 375.731 344.414 374.531C369.632 373.671 404.506 379.356 423.053 398.304C425.373 400.711 427.387 403.394 429.047 406.294Z" fill="white"/>
</g>
<path d="M424.264 143.195L355.259 141.583C352.713 141.524 350.785 143.54 350.785 146.086V154.059C350.789 155.288 351.272 156.467 352.131 157.345C352.991 158.224 354.16 158.733 355.389 158.764L424.267 160.182C426.747 160.231 428.499 158.238 428.499 155.725V147.851C428.499 145.337 426.749 143.254 424.264 143.195Z" fill="#D8DEE8"/>
<path d="M424.264 172.723L355.259 171.454C352.713 171.408 350.785 173.434 350.785 175.98V183.952C350.787 185.179 351.271 186.357 352.131 187.232C352.992 188.107 354.161 188.611 355.389 188.634L424.267 189.7C426.747 189.738 428.499 187.733 428.499 185.222V177.354C428.499 174.842 426.749 172.769 424.264 172.723Z" fill="#D8DEE8"/>
<path d="M338.376 245.541C338.376 242.126 336.074 239.344 332.887 239.327L263.816 238.945C260.545 238.928 258.051 241.722 258.051 245.188V319.505C258.051 322.971 260.618 325.753 263.889 325.721L332.866 325.008C336.051 324.976 338.376 322.18 338.376 318.766V245.541Z" fill="white"/>
<path d="M304.943 287.051L298.094 282.505L295.066 288.014L298.132 293.502L304.981 298.048L311.798 293.454L319.067 298.279L324.122 290.664L311.76 282.457L304.943 287.051Z" fill="#1D71B8"/>
<path d="M304.93 283.386L311.747 278.792L319.016 283.617L324.072 276.002L311.709 267.795L304.892 272.389L298.044 267.843C298.043 267.843 295.015 273.352 295.015 273.352L298.081 278.84C298.082 278.84 304.93 283.386 304.93 283.386Z" fill="#4A8DC6"/>
<path d="M291.277 287.099L284.428 282.553L272.123 290.845L277.231 298.425L284.466 293.549L291.316 298.096L298.132 293.502L298.094 282.505L291.277 287.099Z" fill="#4A8DC6"/>
<path d="M291.226 272.439L284.377 267.892L272.072 276.185L277.18 283.765L284.416 278.889L291.265 283.435L298.081 278.842L298.043 267.845L291.226 272.439Z" fill="#77AAD4"/>
<path d="M233.236 245.09C233.236 241.611 230.534 238.775 227.223 238.756L155.211 238.375C151.811 238.358 148.992 241.209 148.992 244.742V320.509C148.992 324.044 151.91 326.877 155.311 326.841L227.175 326.102C230.486 326.067 233.236 323.217 233.236 319.735V245.09Z" fill="white"/>
<path d="M123.521 244.628C123.521 241.079 120.616 238.187 117.174 238.168L42.0496 237.766C38.5119 237.749 35.3594 240.655 35.3594 244.258V321.544C35.3594 325.147 38.6015 328.036 42.1412 328L117.231 327.238C120.675 327.203 123.525 324.299 123.525 320.759L123.521 244.628Z" fill="white"/>
<g clip-path="url(#clip0_178_3725)">
<path d="M108.102 257.163L107.476 260.414C106.904 263.385 105.633 266.177 103.767 268.558L94.2824 280.656C94.1759 280.791 94.0177 280.877 93.8469 280.889L90.0504 281.184C89.4668 281.229 89.2703 281.986 89.7581 282.308L91.3287 283.351C91.6268 283.549 91.6934 283.961 91.4719 284.243L89.1351 287.224C89.025 287.365 88.8594 287.45 88.6812 287.459C86.7643 287.553 84.4286 287.721 82.8658 287.84C82.2872 287.883 82.0883 288.631 82.5674 288.959L85.4155 290.909C85.7087 291.11 85.7704 291.516 85.5514 291.795L82.1696 296.109C70.9981 292.14 72.6079 278.749 74.2738 271.86L88.4253 260.647C88.5932 260.515 88.818 260.478 89.0198 260.553L91.2692 261.382C91.7123 261.545 92.1657 261.17 92.089 260.705L91.8392 259.211C91.7248 258.519 91.994 257.819 92.5443 257.383C93.7257 256.447 95.0085 255.66 96.3667 255.031C97.725 254.403 99.1563 253.935 100.634 253.64L103.897 252.988C106.384 252.491 108.581 254.674 108.102 257.163Z" fill="#31A7FB"/>
<path d="M108.102 257.161L107.476 260.413C106.904 263.384 105.633 266.176 103.767 268.557L94.2826 280.654C94.1762 280.79 94.0179 280.875 93.8471 280.888L90.0506 281.183C89.4683 281.228 89.2718 281.984 89.7584 282.307L91.329 283.35C91.6283 283.548 91.6936 283.959 91.4734 284.242L89.1353 287.224C89.0252 287.363 88.8596 287.448 88.6814 287.458C86.7658 287.552 84.4289 287.72 82.8673 287.838C82.2886 287.882 82.0884 288.63 82.5676 288.957L85.4158 290.908C85.7089 291.108 85.7706 291.515 85.5516 291.794L82.171 296.108C80.9221 295.665 79.8325 295.103 78.8851 294.445L80.9516 291.81C81.1707 291.531 81.1077 291.124 80.8146 290.924L77.9666 288.974C77.4873 288.646 77.6876 287.898 78.2662 287.854C79.8278 287.736 82.1647 287.568 84.0803 287.474C84.2586 287.465 84.4242 287.379 84.5342 287.24L86.8723 284.258C87.0926 283.975 87.0272 283.564 86.7279 283.366L85.1573 282.323C84.6707 282 84.8671 281.244 85.4496 281.199L89.2459 280.904C89.418 280.891 89.575 280.806 89.6814 280.67L99.1661 268.573C101.032 266.192 102.303 263.4 102.875 260.429L103.501 257.177C103.807 255.593 103.027 254.134 101.779 253.409L103.897 252.986C106.384 252.49 108.582 254.672 108.102 257.161Z" fill="#1C96F9"/>
<path d="M82.8771 295.208L77.6834 301.833C77.6442 301.883 77.6038 301.933 77.5622 301.981C66.204 297.347 63.2811 287.02 62.5552 281.145L64.9034 279.284C65.0958 279.13 65.3625 279.108 65.5792 279.226L68.442 280.787C68.8519 281.011 69.3523 280.713 69.3507 280.246L69.3361 276.071C69.3355 275.883 69.4208 275.705 69.5691 275.587L75.518 270.875C73.8928 276.703 71.1234 291.348 82.8771 295.208Z" fill="#FCB44D"/>
<path d="M82.8758 295.208L77.682 301.833C77.6429 301.883 77.6025 301.933 77.5608 301.981C76.3695 301.495 75.2701 300.947 74.2579 300.347L79.5495 293.599C80.5017 294.245 81.6035 294.79 82.8758 295.208Z" fill="#FB9927"/>
<path d="M78.383 300.939L77.682 301.832C76.5979 303.215 74.8404 303.89 73.109 303.587L60.6074 301.407C60.3053 301.354 60.0882 301.087 60.0989 300.78L60.6519 284.793C60.7012 283.396 61.3615 282.089 62.4571 281.22L63.489 280.402C63.9113 285.573 66.258 296.677 78.383 300.939Z" fill="#FCA62F"/>
<path d="M78.3856 300.938L77.6846 301.831C76.6005 303.214 74.843 303.889 73.1116 303.586L71.2633 303.263C71.9652 302.953 72.5927 302.473 73.0834 301.847L74.9749 299.434C76.0153 299.998 77.1501 300.503 78.3856 300.938Z" fill="#F98824"/>
<path d="M98.5861 263.937L74.2853 288.408C74.041 287.756 73.8396 287.087 73.6774 286.404L97.2776 262.638C97.6365 262.278 98.2201 262.276 98.5815 262.633C98.9428 262.992 98.9448 263.576 98.5861 263.937Z" fill="#1C96F9"/>
<path d="M75.0551 287.633L67.9375 294.801C67.5474 294.302 67.1843 293.796 66.8471 293.283L74.4803 285.596C74.629 286.289 74.8181 286.972 75.0551 287.633Z" fill="#FB9927"/>
<path d="M68.6061 294.125L63.3536 299.414C59.2988 303.497 56.6426 308.652 55.6706 314.324C55.5936 314.771 55.2063 315.088 54.7663 315.09C54.7135 315.09 54.6605 315.085 54.6065 315.077C54.1047 314.99 53.7676 314.515 53.8543 314.013C54.8901 307.965 57.7221 302.469 62.0451 298.116L67.5095 292.612C67.8467 293.124 68.2111 293.629 68.6061 294.125Z" fill="#F98824"/>
</g>
<path d="M338.376 146.729C338.376 143.314 336.074 140.485 332.887 140.41L263.816 138.789C260.545 138.712 258.051 141.456 258.051 144.925V219.242C258.051 222.708 260.683 225.53 263.963 225.562L332.906 226.102C336.091 226.126 338.383 223.379 338.383 219.964L338.376 146.729Z" fill="white"/>
<g clip-path="url(#clip1_178_3725)">
<path d="M308.033 158.62C308.022 158.619 299.61 154.958 289.801 158.683C279.959 162.42 272.97 171.954 273.009 183.085C273.048 194.216 280.102 203.701 289.971 207.369C289.971 207.369 295.035 209.12 298.396 208.972L298.395 208.971C311.939 209.644 325.048 198.208 324.995 182.904C324.956 171.773 317.902 162.287 308.033 158.62Z" fill="#DCE6EB"/>
<path d="M302.126 157.195C301.931 157.221 301.736 157.248 301.541 157.279L301.54 157.279C300.661 157.088 300.09 157.051 300.09 157.051C300.292 157.052 300.493 157.058 300.691 157.066L300.697 157.066C301.193 157.097 301.67 157.142 302.126 157.195Z" fill="#DCE6EB"/>
<path d="M290.763 205.997C287.782 203.525 286.064 199.894 286.051 196.036C286.032 190.562 289.481 185.631 294.635 183.765C296.032 183.259 297.501 182.999 299.002 182.994C306.168 182.969 311.978 177.119 311.953 169.952C311.928 162.786 306.077 156.976 298.911 157.001C295.776 157.012 292.711 157.578 289.801 158.683C284.906 160.541 280.722 163.801 277.702 168.111C274.613 172.519 272.99 177.697 273.009 183.085C273.028 188.473 274.687 193.64 277.806 198.026C280.856 202.314 285.063 205.545 289.971 207.369C289.971 207.369 295.035 209.119 298.396 208.971" fill="#5F6C75"/>
<path d="M302.128 157.195C301.933 157.221 301.738 157.249 301.543 157.279L301.542 157.279C299.753 157.554 298 158.015 296.299 158.661C291.405 160.519 287.22 163.78 284.201 168.089C281.111 172.496 279.488 177.675 279.507 183.063C279.526 188.45 281.185 193.617 284.306 198.003C285.199 199.26 286.192 200.425 287.273 201.491C287.273 201.491 287.273 201.492 287.274 201.492C289.261 205.731 293.471 208.725 298.389 208.971C295.028 209.117 289.972 207.369 289.972 207.369C280.102 203.701 273.048 194.215 273.009 183.085C272.97 171.954 279.959 162.42 289.802 158.684C293.83 157.153 297.622 156.869 300.693 157.066L300.699 157.066C301.195 157.097 301.672 157.142 302.128 157.195Z" fill="#4E5A61"/>
<path d="M320.196 167.962C317.146 163.674 312.94 160.443 308.032 158.619C308.032 158.619 304.448 157.085 300.09 157.05C300.09 157.05 304.089 157.309 307.24 159.99C310.221 162.462 311.939 166.093 311.952 169.952C311.971 175.425 308.522 180.357 303.368 182.222C301.971 182.729 300.502 182.988 299.001 182.993C291.835 183.018 286.025 188.869 286.05 196.035C286.075 203.201 291.925 209.011 299.092 208.986C302.227 208.975 305.292 208.409 308.202 207.304C313.097 205.446 317.281 202.186 320.301 197.877C323.39 193.469 325.013 188.291 324.994 182.903C324.975 177.515 323.316 172.348 320.196 167.962Z" fill="#DCE6EB"/>
<path d="M299.059 199.087C297.352 199.093 295.958 197.709 295.952 196.001C295.946 194.294 297.33 192.901 299.038 192.895C300.745 192.889 302.139 194.273 302.145 195.98C302.151 197.687 300.766 199.081 299.059 199.087Z" fill="#4E5A61"/>
<path d="M298.944 166.901C300.651 166.895 302.045 168.278 302.051 169.986C302.057 171.693 300.673 173.087 298.965 173.093C297.258 173.099 295.864 171.714 295.858 170.007C295.853 168.3 297.237 166.907 298.944 166.901Z" fill="#DCE6EB"/>
</g>
<g filter="url(#filter0_d_178_3725)">
<path d="M236.236 142.367C236.236 138.888 233.534 136.003 230.223 135.925L158.211 134.248C154.811 134.168 151.992 136.967 151.992 140.5V216.269C151.992 219.802 154.799 222.687 158.2 222.714L230.2 223.272C233.511 223.299 236.236 220.497 236.236 217.016V142.367Z" fill="white"/>
</g>
<g clip-path="url(#clip2_178_3725)">
<path d="M207.601 176.026C209.276 176.021 210.643 177.379 210.649 179.054L215.142 182.026L219.614 179.023C219.591 172.404 214.188 167.039 207.569 167.062C200.951 167.085 195.585 172.488 195.608 179.106L200.101 182.079L204.573 179.075C204.567 177.4 205.925 176.032 207.601 176.026Z" fill="#FB7A5B"/>
<path d="M207.65 191.068C214.269 191.045 219.634 185.642 219.611 179.024L210.646 179.055C210.652 180.73 209.294 182.098 207.619 182.104C205.944 182.109 204.576 180.751 204.57 179.076L195.605 179.107C195.629 185.726 201.032 191.091 207.65 191.068Z" fill="#FD5F6E"/>
<path d="M187.838 194.412L186.455 193.843L183.052 202.14L184.433 202.707C187.537 203.982 190.823 204.623 194.201 204.611L197.174 200.118L194.17 195.646C191.981 195.654 189.851 195.238 187.838 194.412Z" fill="#FA9647"/>
<path d="M210.648 179.054C210.68 188.171 203.288 195.615 194.171 195.646L194.202 204.611C201.014 204.587 207.408 201.913 212.207 197.08C217.007 192.246 219.637 185.834 219.613 179.022L210.648 179.054Z" fill="#FB7A5B"/>
<path d="M180.625 182.197C178.95 182.203 177.583 180.845 177.577 179.17L173.084 176.197L168.612 179.201C168.635 185.82 174.038 191.185 180.657 191.162C187.275 191.139 192.641 185.736 192.618 179.117L188.125 176.145L183.653 179.149C183.659 180.824 182.301 182.191 180.625 182.197Z" fill="#FA9647"/>
<path d="M180.573 167.155C173.955 167.178 168.589 172.582 168.612 179.2L177.577 179.169C177.571 177.494 178.929 176.126 180.604 176.12C182.28 176.114 183.647 177.472 183.653 179.148L192.618 179.116C192.595 172.498 187.192 167.132 180.573 167.155Z" fill="#FB7A5B"/>
<path d="M203.791 155.516C200.688 154.241 197.402 153.601 194.023 153.613L191.051 158.105L194.055 162.577C196.243 162.57 198.374 162.985 200.387 163.812L201.77 164.38L205.172 156.084L203.791 155.516Z" fill="#FB7A5B"/>
<path d="M176.018 161.144C171.219 165.977 168.589 172.39 168.612 179.201L177.577 179.17C177.545 170.052 184.937 162.609 194.055 162.577L194.023 153.612C187.212 153.636 180.818 156.311 176.018 161.144Z" fill="#FA9647"/>
</g>
<path d="M123.521 141.917C123.521 138.369 120.616 135.425 117.174 135.345L42.0496 133.592C38.5119 133.508 35.3594 136.362 35.3594 139.968V217.252C35.3594 220.857 38.4547 223.799 41.9924 223.828L117.063 224.409C120.506 224.436 123.521 221.581 123.521 218.031V141.917Z" fill="white"/>
<g clip-path="url(#clip3_178_3725)">
<path d="M102.22 193.979C93.3702 195.756 83.8254 193.232 76.9396 186.394C70.0534 179.555 67.4625 170.028 69.1775 161.166C69.5707 159.134 67.3305 157.648 65.6139 158.804C64.0871 159.832 62.6394 161.026 61.2963 162.387C50.6115 173.215 50.5733 190.793 61.2171 201.66C72.1722 212.846 90.122 212.878 101.118 201.805C102.443 200.47 103.606 199.036 104.607 197.526C105.751 195.802 104.249 193.572 102.22 193.979Z" fill="#FEC458"/>
<path d="M68.1151 199.509C57.4712 188.641 57.5095 171.063 68.1943 160.236C68.4277 159.999 68.6654 159.769 68.905 159.543C68.2735 158.481 66.816 157.995 65.6139 158.804C64.0871 159.832 62.6394 161.026 61.2963 162.387C50.6115 173.215 50.5733 190.792 61.2171 201.66C69.7577 210.381 82.5492 212.321 92.9831 207.507C84.2095 209.039 74.8433 206.379 68.1151 199.509Z" fill="#FFB640"/>
<path d="M102.193 170.676C102.679 170.198 102.407 169.37 101.732 169.274L98.3103 168.789C98.0422 168.751 97.8101 168.584 97.6895 168.341L96.1493 165.248C95.8454 164.638 94.9736 164.641 94.6739 165.253L93.1554 168.357C93.0365 168.601 92.8053 168.77 92.5375 168.809L89.1195 169.318C88.4451 169.419 88.1784 170.249 88.6684 170.723L91.1514 173.127C91.3461 173.315 91.4354 173.587 91.3905 173.854L90.8182 177.262C90.7053 177.934 91.4124 178.444 92.0149 178.125L95.0678 176.506C95.3071 176.38 95.5934 176.379 95.8336 176.504L98.8979 178.101C99.5025 178.416 100.206 177.901 100.089 177.23L99.4927 173.826C99.446 173.559 99.5335 173.286 99.7268 173.096L102.193 170.676Z" fill="#FEC458"/>
<path d="M84.0472 156.588L82.6787 156.394C82.3082 156.341 81.9871 156.11 81.8202 155.775L81.2043 154.537C80.7842 153.694 79.5789 153.698 79.1646 154.544L78.5573 155.786C78.3928 156.122 78.0734 156.356 77.7031 156.411L76.336 156.615C75.4036 156.754 75.0352 157.901 75.7124 158.557L76.7055 159.518C76.9745 159.778 77.0981 160.154 77.0362 160.523L76.8072 161.887C76.6512 162.816 77.6288 163.521 78.4615 163.08L79.6826 162.432C80.0134 162.257 80.4092 162.256 80.7411 162.429L81.9667 163.068C82.8027 163.503 83.7752 162.791 83.6127 161.863L83.3743 160.501C83.3098 160.133 83.4308 159.756 83.6979 159.494L84.6842 158.525C85.357 157.865 84.9805 156.72 84.0472 156.588Z" fill="#FFE181"/>
<path d="M94.6836 146.002L93.6835 145.86C93.4126 145.822 93.1779 145.652 93.0559 145.408L92.6057 144.503C92.2987 143.886 91.4177 143.889 91.1149 144.508L90.671 145.416C90.5508 145.662 90.3173 145.832 90.0468 145.873L89.0476 146.021C88.3662 146.123 88.0969 146.962 88.5919 147.441L89.3177 148.143C89.5143 148.334 89.6046 148.609 89.5594 148.878L89.3921 149.875C89.2779 150.554 89.9926 151.07 90.6012 150.747L91.4936 150.274C91.7354 150.145 92.0247 150.144 92.2673 150.271L93.1632 150.738C93.7742 151.056 94.4851 150.536 94.3662 149.857L94.192 148.862C94.1448 148.593 94.2333 148.317 94.4285 148.126L95.1494 147.418C95.6409 146.935 95.3658 146.098 94.6836 146.002Z" fill="#FFE181"/>
<path d="M95.0346 173.841C95.0794 173.574 94.9902 173.302 94.7955 173.114L92.3125 170.71C91.8225 170.236 92.0892 169.406 92.7636 169.306L96.1816 168.797C96.4494 168.757 96.6806 168.588 96.7995 168.345L97.2413 167.441L96.1493 165.248C95.8454 164.638 94.9735 164.641 94.6738 165.253L93.1553 168.357C93.0364 168.601 92.8052 168.77 92.5375 168.809L89.1195 169.318C88.445 169.419 88.1785 170.249 88.6683 170.723L91.1513 173.127C91.346 173.315 91.4353 173.587 91.3904 173.854L90.8181 177.262C90.7052 177.934 91.4124 178.444 92.0149 178.125L94.5401 176.786L95.0346 173.841Z" fill="#FFB640"/>
<path d="M79.8316 161.876L80.0606 160.513C80.1226 160.144 79.9989 159.768 79.7299 159.507L78.7368 158.546C78.0595 157.89 78.4279 156.743 79.3604 156.604L80.7275 156.401C81.0976 156.345 81.417 156.112 81.5816 155.775L81.7001 155.533L81.2042 154.537C80.7842 153.694 79.5789 153.698 79.1646 154.544L78.5572 155.786C78.3928 156.122 78.0734 156.356 77.7031 156.411L76.336 156.615C75.4036 156.754 75.0352 157.901 75.7124 158.557L76.7055 159.518C76.9744 159.778 77.0981 160.154 77.0361 160.523L76.8071 161.886C76.651 162.816 77.6287 163.521 78.4614 163.08L79.6825 162.432C79.7377 162.403 79.795 162.38 79.8532 162.361C79.8131 162.21 79.8028 162.047 79.8316 161.876Z" fill="#FEC458"/>
<path d="M92.064 149.865L92.2313 148.869C92.2767 148.599 92.1863 148.324 91.9896 148.134L91.2638 147.432C90.7688 146.952 91.0381 146.113 91.7195 146.012L92.7187 145.863C92.9046 145.836 93.072 145.745 93.1982 145.612C93.1404 145.552 93.0902 145.484 93.0521 145.408L92.6018 144.503C92.2948 143.886 91.4138 143.889 91.111 144.508L90.6671 145.416C90.5469 145.662 90.3134 145.832 90.0429 145.873L89.0437 146.022C88.3623 146.123 88.0929 146.962 88.5879 147.441L89.3138 148.144C89.5104 148.334 89.6007 148.609 89.5555 148.879L89.3882 149.875C89.274 150.554 89.9887 151.07 90.5974 150.747L91.4899 150.274C91.6717 150.177 91.8806 150.153 92.0761 150.201C92.0508 150.096 92.0442 149.983 92.064 149.865Z" fill="#FEC458"/>
<path d="M69.481 195.649C65.6193 195.662 62.3557 198.189 61.228 201.673C65.5016 206.032 70.838 208.694 76.4102 209.664C77.5487 208.186 78.225 206.335 78.218 204.325C78.2012 199.517 74.2895 195.632 69.481 195.649Z" fill="#FFB640"/>
<path d="M78.0508 206.055C74.4202 204.657 71.021 202.477 68.1144 199.509C67.2011 198.576 66.3683 197.594 65.6122 196.571C63.5458 197.609 61.95 199.444 61.2287 201.673C62.9971 203.476 65.0485 205.091 67.3767 206.418C70.0784 207.958 73.1179 209.088 76.411 209.663C77.2137 208.621 77.7851 207.393 78.0508 206.055Z" fill="#FF9B00"/>
<path d="M86.7146 203.649C88.5333 203.643 90.0026 202.163 89.9962 200.344C89.9899 198.526 88.5103 197.056 86.6916 197.063C84.8728 197.069 83.4036 198.549 83.4099 200.367C83.4163 202.186 84.8958 203.655 86.7146 203.649Z" fill="#FFB640"/>
<path d="M64.8831 173.964C64.8897 175.863 66.4353 177.398 68.3351 177.392C69.1731 177.389 69.9397 177.086 70.5346 176.586C69.7844 174.635 69.2593 172.617 68.9617 170.571C68.7508 170.532 68.5336 170.511 68.3111 170.511C66.4113 170.518 64.8765 172.064 64.8831 173.964Z" fill="#FFB640"/>
<path d="M65.2257 191.057C67.6868 191.049 69.675 189.046 69.6664 186.585C69.6578 184.124 67.6557 182.136 65.1945 182.145C62.7334 182.153 60.7452 184.155 60.7538 186.616C60.7624 189.078 62.7645 191.066 65.2257 191.057Z" fill="#FFB640"/>
<path d="M86.3703 200.357C86.3658 199.072 87.0989 197.956 88.1711 197.41C87.7247 197.187 87.221 197.061 86.6877 197.063C84.869 197.069 83.3997 198.549 83.406 200.367C83.4124 202.186 84.8919 203.655 86.7107 203.649C87.244 203.647 87.7468 203.518 88.1916 203.291C87.1157 202.752 86.3748 201.642 86.3703 200.357Z" fill="#FF9B00"/>
<path d="M67.8435 173.953C67.8398 172.89 68.3192 171.938 69.075 171.304C69.0329 171.06 68.9936 170.816 68.958 170.571C68.7471 170.532 68.5298 170.511 68.3073 170.511C66.4075 170.518 64.8726 172.064 64.8792 173.964C64.8858 175.863 66.4314 177.398 68.3313 177.392C68.8619 177.39 69.3634 177.267 69.8114 177.051C68.652 176.501 67.8483 175.322 67.8435 173.953Z" fill="#FF9B00"/>
<path d="M64.6146 186.601C64.6084 184.831 65.6345 183.299 67.1264 182.575C66.5414 182.295 65.8861 182.14 65.1945 182.143C62.7334 182.151 60.7452 184.153 60.7538 186.614C60.7624 189.076 62.7646 191.064 65.2257 191.055C65.9172 191.053 66.5714 190.893 67.1545 190.61C65.6574 189.896 64.6207 188.371 64.6146 186.601Z" fill="#FF9B00"/>
</g>
<g clip-path="url(#clip4_178_3725)">
<path d="M217.788 263.34C217.77 263.429 217.752 263.519 217.731 263.608C217.365 265.24 216.465 267.731 215.277 270.685C215.201 270.875 215.026 271.007 214.823 271.029L209.498 271.603C208.892 271.669 208.821 272.522 209.408 272.686L213.325 273.781C213.647 273.871 213.816 274.223 213.686 274.53C211.543 279.592 208.949 285.381 206.813 290.436C206.742 290.603 206.595 290.724 206.418 290.761L204.581 291.149C204.062 291.259 203.98 291.967 204.461 292.192L205.337 292.602C205.604 292.727 205.727 293.039 205.615 293.312C204.252 296.65 203.209 299.474 202.807 301.266C202.084 304.482 203.176 307.803 205.595 309.953L174.287 310.063C169.825 310.078 166.372 306.039 167.217 301.658C167.235 301.568 167.253 301.479 167.274 301.39C167.808 299.011 169.473 294.812 171.514 290.009C171.577 289.86 171.704 289.745 171.86 289.697L173.986 289.037C174.416 288.904 174.515 288.34 174.156 288.068L173.137 287.295C172.933 287.141 172.862 286.869 172.963 286.635C173.052 286.429 173.141 286.224 173.231 286.017C173.293 285.874 173.414 285.763 173.562 285.713L176.525 284.716C177.038 284.543 177.024 283.814 176.506 283.661L175.115 283.248C174.796 283.154 174.632 282.802 174.765 282.497C178.087 274.883 181.401 267.282 182.198 263.732C182.921 260.516 181.829 257.195 179.41 255.044L210.718 254.935C215.18 254.919 218.633 258.959 217.788 263.34Z" fill="#FFD597"/>
<path d="M210.718 254.936L179.41 255.045C181.829 257.196 182.921 260.516 182.198 263.732C181.893 265.091 181.219 267.042 180.318 269.361L203.961 269.278C205.013 269.274 205.978 268.789 206.608 267.945C207.239 267.099 207.43 266.031 207.132 265.018C206.942 264.366 206.781 263.757 206.642 263.157L206.638 263.135C206.623 263.074 206.609 263.012 206.597 262.952C206.317 261.552 206.682 260.104 207.598 258.982C207.608 258.971 207.617 258.959 207.627 258.948C209.665 256.496 213.654 257.842 213.852 261.025C213.893 261.683 213.873 262.454 213.769 263.354C213.758 263.445 213.733 263.534 213.712 263.622C213.358 265.197 212.509 267.571 211.382 270.39C211.23 270.77 210.88 271.036 210.473 271.08L206.242 271.536C205.475 271.619 205.385 272.7 206.129 272.908L208.7 273.626C209.343 273.806 209.681 274.511 209.42 275.126C207.365 279.957 204.939 285.387 202.906 290.184C202.765 290.518 202.47 290.761 202.116 290.836L200.994 291.073C200.338 291.211 200.233 292.101 200.834 292.39C201.364 292.644 201.63 293.241 201.409 293.785C200.138 296.923 199.171 299.571 198.787 301.281C198.065 304.497 199.157 307.817 201.575 309.968L205.595 309.954C203.176 307.803 202.084 304.483 202.807 301.267C203.209 299.475 204.252 296.65 205.615 293.313C205.727 293.04 205.604 292.727 205.337 292.602L204.461 292.193C203.98 291.968 204.061 291.26 204.581 291.15L206.418 290.762C206.595 290.724 206.742 290.603 206.812 290.437C208.949 285.382 211.543 279.593 213.685 274.531C213.815 274.223 213.646 273.872 213.325 273.782L209.408 272.687C208.821 272.523 208.892 271.669 209.498 271.604L214.823 271.03C215.026 271.008 215.201 270.876 215.277 270.686C216.465 267.731 217.364 265.241 217.731 263.608C217.752 263.52 217.77 263.43 217.787 263.34C218.633 258.959 215.18 254.92 210.718 254.936V254.936Z" fill="#FCC16D"/>
<path d="M206.126 309.951L173.566 310.064C177.146 310.052 180.057 307.435 180.616 304.141L185.358 302.572L180.582 301.643C180.581 301.632 180.579 301.622 180.577 301.611C180.559 301.521 180.54 301.432 180.518 301.343C180.363 300.672 180.187 300.011 179.995 299.357C179.787 298.648 180.311 297.935 181.051 297.933L208.788 297.836C210.819 297.829 212.602 299.216 213.064 301.194C213.066 301.206 213.07 301.217 213.072 301.229C213.091 301.312 213.109 301.396 213.126 301.479C214.012 305.859 210.594 309.935 206.126 309.951Z" fill="#FCA62F"/>
<path d="M206.127 309.951L201.734 309.967C206.201 309.951 209.62 305.874 208.734 301.495C208.717 301.412 208.699 301.328 208.68 301.245C208.677 301.233 208.674 301.222 208.672 301.21C208.21 299.232 206.427 297.845 204.396 297.852L208.789 297.837C210.82 297.829 212.603 299.217 213.065 301.195C213.067 301.207 213.071 301.218 213.073 301.23C213.092 301.313 213.11 301.397 213.127 301.48C214.013 305.859 210.594 309.936 206.127 309.951Z" fill="#F98824"/>
<path d="M204.425 263.386C204.444 263.475 204.463 263.565 204.484 263.653C204.639 264.324 204.815 264.986 205.007 265.639C205.215 266.349 204.691 267.061 203.951 267.063L176.214 267.16C174.183 267.167 172.4 265.78 171.938 263.802C171.936 263.79 171.932 263.779 171.93 263.767C171.911 263.684 171.893 263.6 171.876 263.517C171.824 263.263 171.788 263.009 171.765 262.757L175.675 262.143C176.181 262.064 176.317 261.399 175.883 261.128L172.481 258.999C173.644 256.69 176.051 255.055 178.876 255.045L211.436 254.932C206.975 254.947 203.549 259.011 204.425 263.386Z" fill="#FCA62F"/>
<path d="M204.427 263.386C204.445 263.476 204.464 263.565 204.485 263.654C204.64 264.325 204.816 264.986 205.008 265.639C205.216 266.349 204.692 267.061 203.953 267.064L199.87 267.078C200.61 267.075 201.134 266.363 200.926 265.653C200.734 265 200.558 264.339 200.403 263.668C200.382 263.579 200.362 263.49 200.344 263.4C199.468 259.025 202.893 254.962 207.355 254.946L211.438 254.932C206.976 254.948 203.551 259.011 204.427 263.386Z" fill="#F98824"/>
<path d="M192.066 273.666L184.377 286.303C184.184 286.62 184.413 287.026 184.785 287.024L200.25 286.97C200.621 286.969 200.847 286.562 200.652 286.246L192.875 273.663C192.689 273.362 192.25 273.363 192.066 273.666Z" fill="#FCA62F"/>
<path d="M192.936 291.33L200.625 278.693C200.818 278.376 200.589 277.97 200.218 277.972L184.753 278.026C184.382 278.027 184.156 278.434 184.351 278.75L192.127 291.333C192.313 291.634 192.752 291.633 192.936 291.33Z" fill="#F98824"/>
<path d="M198.323 282.478L195.58 286.987L189.454 287.008L186.68 282.519L189.423 278.01L195.548 277.989L198.323 282.478Z" fill="#FCB44D"/>
<path d="M194.077 281.515L190.92 281.526C190.461 281.528 190.091 281.901 190.093 282.359C190.094 282.818 190.467 283.188 190.926 283.186L191.674 283.184L191.675 283.434C191.677 283.892 192.05 284.262 192.508 284.261C192.966 284.259 193.337 283.886 193.335 283.428L193.334 283.178L194.083 283.175C194.541 283.174 194.912 282.801 194.91 282.342C194.908 281.884 194.536 281.514 194.077 281.515Z" fill="#433F43"/>
<path d="M181.257 260.736C181.181 260.736 181.104 260.726 181.028 260.704L180.155 260.458C179.714 260.334 179.457 259.875 179.581 259.434C179.705 258.993 180.164 258.736 180.605 258.86L181.479 259.107C181.92 259.231 182.177 259.69 182.052 260.131C181.949 260.496 181.618 260.734 181.257 260.736Z" fill="#F98824"/>
<path d="M205.711 276.63C205.252 276.632 204.88 276.262 204.878 275.804C204.876 275.345 205.246 274.972 205.705 274.97L206.733 274.966L206.734 274.966C207.192 274.965 207.565 275.335 207.566 275.793C207.568 276.251 207.198 276.624 206.74 276.626L205.711 276.63C205.711 276.63 205.711 276.63 205.711 276.63Z" fill="#FCC16D"/>
<path d="M174.927 304.012C174.674 304.013 174.424 303.898 174.26 303.68L173.696 302.929C173.421 302.562 173.495 302.042 173.862 301.767C174.229 301.492 174.749 301.566 175.024 301.932L175.588 302.683C175.863 303.05 175.789 303.57 175.422 303.845C175.274 303.957 175.1 304.011 174.927 304.012Z" fill="#FCC16D"/>
<path d="M171.199 303.647L171.187 303.647C170.729 303.649 170.356 303.279 170.354 302.82C170.353 302.362 170.723 301.989 171.181 301.987L171.193 301.987C171.651 301.986 172.024 302.356 172.026 302.814C172.027 303.273 171.657 303.646 171.199 303.647Z" fill="#FCC16D"/>
<path d="M205.734 281.651C205.733 281.651 205.731 281.651 205.73 281.651L205.719 281.651C205.26 281.651 204.889 281.279 204.89 280.82C204.89 280.363 205.26 279.993 205.717 279.991L205.721 279.991L205.732 279.991C206.191 279.992 206.562 280.364 206.561 280.822C206.56 281.279 206.191 281.65 205.734 281.651Z" fill="#FCC16D"/>
<path d="M183.882 259.667C183.881 259.667 183.88 259.667 183.879 259.667L183.867 259.667C183.409 259.666 183.038 259.294 183.038 258.836C183.039 258.379 183.409 258.008 183.865 258.007L183.869 258.007L183.88 258.007C184.339 258.007 184.71 258.379 184.709 258.838C184.709 259.295 184.339 259.665 183.882 259.667Z" fill="#F98824"/>
<path d="M185.89 263.524C185.889 263.524 185.888 263.524 185.886 263.524L185.875 263.524C185.416 263.524 185.045 263.152 185.046 262.693C185.046 262.236 185.416 261.866 185.873 261.864L185.877 261.864L185.888 261.864C186.347 261.865 186.718 262.237 186.717 262.695C186.717 263.152 186.347 263.523 185.89 263.524Z" fill="#F98824"/>
<path d="M190.589 306.38L190.578 306.38C190.119 306.381 189.747 306.011 189.745 305.553C189.743 305.094 190.114 304.721 190.572 304.72L190.584 304.72C191.042 304.718 191.415 305.088 191.416 305.547C191.418 306.005 191.048 306.378 190.589 306.38Z" fill="#F98824"/>
</g>
<path d="M450.64 511.332C452.088 513.638 451.863 514.716 451.613 515.208C450.885 516.647 448.657 515.589 443.254 516.81C442.144 517.1 440.989 517.18 439.85 517.047C438.515 516.875 436.892 516.34 436.922 515.983C436.932 515.852 437.159 515.778 437.247 515.749C438.73 515.267 447.927 511.366 447.927 511.366L450.64 511.332Z" fill="url(#paint4_linear_178_3725)"/>
<path d="M450.815 505.914L450.535 511.44C450.535 511.44 448.372 513.332 447.548 511.395C446.957 510.002 446.562 506.118 446.562 506.118L450.815 505.914Z" fill="url(#paint5_linear_178_3725)"/>
<path d="M423.52 511.482L426.466 517.498L429.743 516.619L428.364 510.908L423.52 511.482Z" fill="url(#paint6_linear_178_3725)"/>
<path d="M427.866 520.835C429.279 518.754 430.736 518.777 430.889 517.433C431.009 516.378 430.244 515.177 429.239 514.796C427.826 514.261 426.312 515.486 425.97 515.762C423.645 517.643 424.589 520.105 422.347 521.448C421.897 521.719 421.172 522.033 420.459 522.855C420.155 523.205 419.406 524.07 419.656 524.587C419.945 525.183 421.427 525.006 422.835 524.838C424.523 524.648 425.368 524.537 426.128 523.944C427.189 523.125 426.775 522.439 427.866 520.835Z" fill="url(#paint7_linear_178_3725)"/>
<path d="M455.047 374.113C455.667 385.019 455.294 395.958 453.931 406.796C452.705 416.485 451.667 418.229 451.585 424.866C451.394 439.31 456.197 440.979 458.39 457.106C460.81 474.914 457.23 489.524 455.809 495.101C454.805 499.041 453.568 502.918 452.104 506.712C450.578 508.276 448.026 507.935 445.337 507.617C443.016 491.477 440.535 476.311 438.214 460.169C433.046 436.031 427.878 411.888 422.711 387.738L455.047 374.113Z" fill="url(#paint8_linear_178_3725)"/>
<path style="mix-blend-mode:multiply" opacity="0.3" d="M445.337 507.617C443.016 491.477 440.535 476.311 438.214 460.169C433.046 436.031 427.878 411.888 422.711 387.738L455.047 374.113C455.094 374.954 455.119 375.765 455.153 376.591C440.728 391.366 438.573 402.302 439.324 409.58C440.241 418.402 445.442 422.385 445.56 435.278C445.644 444.499 443.022 446.342 443.709 454.61C444.594 465.258 449.665 470.866 452.401 476.835C455.049 482.605 456.513 490.964 453.355 503.29C452.913 504.572 452.487 505.721 452.106 506.71C450.582 508.276 448.026 507.937 445.337 507.617Z" fill="url(#paint9_linear_178_3725)"/>
<path d="M436.444 387.942C429.437 402.359 425.81 413.553 423.908 420.436C422.749 424.628 421.742 428.99 421.889 434.582C422.046 440.031 423.224 445.401 425.361 450.416C427.728 455.441 429.59 460.688 430.921 466.08C435.7 485.457 432.46 502.274 429.641 512.025L423.92 514.692C416.474 498.284 410.401 481.287 405.764 463.877C402.632 452.144 400.222 442.936 399.22 431.072C398.166 418.557 398.305 398.613 406.593 374.109L436.444 387.942Z" fill="url(#paint10_linear_178_3725)"/>
<path d="M422.901 279.978C410.558 283.164 401.211 286.191 397.498 293.096C393.577 300.389 401.156 305.008 404.364 320.033C409.267 343.035 396.609 352.83 402.401 375.922C403.936 381.972 406.394 387.751 409.691 393.053C414.012 396.014 420.817 399.981 429.796 402.31C442.862 405.696 448.911 402.598 466.075 402.158C494.15 401.439 499.006 409.189 511.217 403.166C523.559 397.068 531.666 382.711 528.477 377.124C526.57 373.78 521.636 376.375 513.95 372.711C504.033 367.987 505.008 360.34 496.805 354.528C485.025 346.18 475.207 356.409 465.12 349.137C454.917 341.78 452.136 322.067 455.203 309.94C457.209 302.018 456.562 293.637 457.873 285.571C458.036 284.597 457.912 283.596 457.516 282.69C455.576 278.277 447.187 278.094 440.85 278.016C431.182 277.894 423.918 279.715 422.901 279.978Z" fill="url(#paint11_linear_178_3725)"/>
<path style="mix-blend-mode:multiply" opacity="0.3" d="M509.021 394.469C504.938 392.215 506.427 384.738 500.376 381.336C494.759 378.179 491.002 383.228 482.966 381.475C472.667 379.229 472.379 369.514 462.491 367.225C455.379 365.581 453.655 370.171 443.678 371.191C433.702 372.21 420.301 369.177 411.145 359.298C407.661 355.515 405.038 351.024 403.453 346.133C401.5 354.965 399.294 363.529 402.402 375.922C403.936 381.973 406.395 387.751 409.691 393.053C414.013 396.015 420.818 399.982 429.796 402.311C442.86 405.697 448.912 402.598 466.076 402.158C494.151 401.44 499.007 409.19 511.218 403.166C519.106 399.273 525.245 392.007 527.831 385.808C517.451 394.749 511.981 396.106 509.021 394.469Z" fill="url(#paint12_linear_178_3725)"/>
<path d="M413.874 258.924C413.874 258.924 410.96 265.681 411.121 270.241C411.281 274.801 416.38 274.052 416.38 274.052L416.426 276.933C416.445 278.137 416.114 279.32 415.474 280.34C414.834 281.36 413.912 282.173 412.82 282.681L410.855 283.593C410.855 283.593 424.303 285.325 431.094 279.634L428.996 279.603C427.557 279.581 426.169 279.063 425.069 278.136C423.968 277.208 423.223 275.929 422.958 274.515L422.731 273.299C422.731 273.299 423.851 258.947 413.874 258.924Z" fill="url(#paint13_linear_178_3725)"/>
<path d="M400.4 332.698L380.297 298.047C380.175 297.839 379.99 297.676 379.769 297.58C379.548 297.485 379.302 297.463 379.067 297.518L350.94 304.084C350.766 304.125 350.604 304.206 350.467 304.322C350.33 304.438 350.224 304.584 350.155 304.75C350.087 304.915 350.059 305.094 350.074 305.273C350.089 305.451 350.147 305.623 350.242 305.775L373.57 343.047C373.707 343.265 373.914 343.429 374.157 343.513C374.399 343.597 374.664 343.595 374.905 343.508L399.626 334.587L400.4 332.698Z" fill="url(#paint14_linear_178_3725)"/>
<path d="M395.454 328.766L379.176 300.71C379.078 300.541 378.929 300.408 378.749 300.331C378.57 300.253 378.371 300.235 378.181 300.28L355.406 305.598C355.264 305.63 355.132 305.695 355.02 305.788C354.909 305.882 354.822 306 354.766 306.134C354.71 306.268 354.687 306.414 354.698 306.559C354.71 306.703 354.756 306.843 354.833 306.966L373.714 337.145C373.823 337.322 373.99 337.457 374.187 337.527C374.384 337.596 374.599 337.596 374.795 337.526L394.82 330.304L395.454 328.766Z" fill="url(#paint15_linear_178_3725)"/>
<path d="M374.377 301.03L373.084 298.78C372.996 298.628 372.862 298.507 372.701 298.437C372.54 298.366 372.361 298.349 372.189 298.387L360.474 301.019C360.347 301.048 360.229 301.106 360.13 301.188C360.03 301.271 359.951 301.376 359.9 301.495C359.848 301.614 359.826 301.743 359.834 301.872C359.841 302.001 359.88 302.127 359.945 302.239L361.381 304.685C361.471 304.838 361.608 304.957 361.771 305.026C361.934 305.094 362.115 305.109 362.287 305.067L373.858 302.239C373.982 302.208 374.097 302.15 374.194 302.067C374.292 301.985 374.369 301.881 374.419 301.764C374.469 301.647 374.492 301.519 374.484 301.392C374.477 301.265 374.44 301.141 374.377 301.03Z" fill="url(#paint16_linear_178_3725)"/>
<path d="M359.03 310.679C359.048 310.677 359.066 310.674 359.084 310.668L379.717 305.805C379.778 305.791 379.835 305.765 379.886 305.728C379.937 305.692 379.98 305.646 380.013 305.593C380.046 305.539 380.068 305.48 380.078 305.419C380.088 305.357 380.086 305.294 380.072 305.233C380.041 305.112 379.964 305.007 379.857 304.941C379.75 304.875 379.622 304.853 379.499 304.881L358.876 309.744C358.756 309.77 358.652 309.842 358.584 309.943C358.516 310.045 358.49 310.168 358.511 310.289C358.532 310.409 358.599 310.517 358.697 310.589C358.796 310.661 358.918 310.693 359.04 310.677L359.03 310.679Z" fill="white"/>
<path d="M360.324 312.676L360.383 312.665L380.881 307.609C380.998 307.574 381.097 307.496 381.158 307.39C381.218 307.284 381.236 307.159 381.207 307.041C381.178 306.922 381.104 306.82 381.001 306.754C380.898 306.689 380.774 306.665 380.654 306.689L360.156 311.75C360.039 311.779 359.938 311.852 359.873 311.953C359.808 312.054 359.783 312.176 359.804 312.294C359.826 312.413 359.891 312.518 359.988 312.59C360.084 312.662 360.204 312.695 360.324 312.682V312.676Z" fill="white"/>
<path d="M371.135 314.899C371.16 314.897 371.184 314.892 371.208 314.886L382.351 311.814C382.413 311.799 382.471 311.772 382.522 311.734C382.572 311.696 382.615 311.648 382.647 311.593C382.679 311.539 382.7 311.478 382.708 311.415C382.717 311.353 382.712 311.289 382.696 311.228C382.679 311.166 382.65 311.109 382.611 311.06C382.571 311.01 382.522 310.968 382.467 310.938C382.411 310.907 382.35 310.888 382.287 310.881C382.224 310.875 382.16 310.881 382.099 310.899L370.954 313.971C370.837 314.002 370.736 314.077 370.673 314.18C370.609 314.283 370.587 314.407 370.611 314.525C370.636 314.644 370.704 314.749 370.804 314.818C370.903 314.888 371.025 314.917 371.145 314.899H371.135Z" fill="white"/>
<path d="M367.861 333.925C367.861 333.925 362.887 331.257 362.113 329.085C361.338 326.913 361.035 322.715 361.035 322.715L364.359 328.331C364.359 328.331 365.629 327.82 365.99 325.817C366.35 323.814 367.489 325.495 367.258 327.004C367.027 328.513 367.861 333.925 367.861 333.925Z" fill="url(#paint17_linear_178_3725)"/>
<path d="M399.493 290.672C396.097 293.232 393.2 296.393 390.945 299.998C382.901 313.001 387.869 325.441 380.647 330.778C378.583 332.303 374.83 333.762 367.598 332.026L365.073 333.726C365.073 333.726 363.547 350.659 383.775 349.173C404.002 347.686 411.428 321.592 411.428 321.592L399.493 290.672Z" fill="url(#paint18_linear_178_3725)"/>
<path d="M416.473 265.19C417.152 265.075 417.644 264.165 418.132 264.382C418.62 264.599 418.704 265.878 418.344 266.798C418.114 267.374 417.722 267.871 417.215 268.227C418.032 269.159 418.631 270.26 418.971 271.452C419.862 274.691 418.336 277.464 417.739 279.074C415.043 286.315 421.048 296.891 427.096 301.986C432.01 306.127 433.979 304.136 436.996 307.602C442.868 314.346 436.233 322.846 439.771 332.283C445.139 346.636 468.729 349.084 469.713 349.174C470.094 349.21 470.357 349.231 470.756 349.261C481.314 350.052 497.315 351.251 507.728 341.784C515.518 334.703 518.408 323.258 516.968 313.511C516.586 310.946 514.994 301.224 506.351 293.899C504.98 292.737 496.857 285.867 486.707 286.616C481.335 287.012 480.414 288.992 476.207 288.163C470.453 287.02 466.566 282.21 464.155 279.22C459.721 273.721 461.224 272.345 458.144 269.716C452.108 264.571 445.938 269.512 439.58 265.051C433.311 260.653 436.3 253.734 430.288 249.976C424.088 246.1 413.044 248.547 411.093 253.936C409.417 258.56 414.394 265.535 416.473 265.19Z" fill="url(#paint19_linear_178_3725)"/>
<g style="mix-blend-mode:multiply" opacity="0.3">
<path d="M304.961 84.0201C304.961 84.0201 396.487 157.708 454.536 155.273C397.436 107.838 359.198 80.6149 304.961 84.0201Z" fill="#BFC8D6"/>
</g>
<path d="M522.911 187.573C521.969 187.558 520.899 186.776 520.916 185.837L522.272 102.848C522.303 100.971 521.83 99.589 519.951 99.5585L397.28 97.5653C396.34 97.5501 395.594 96.4563 395.61 95.5168C395.625 94.5774 396.407 93.5084 397.347 93.5236L520.016 95.5244C523.775 95.5854 526.378 99.1698 526.31 102.924L524.954 185.913C524.946 186.843 523.852 187.588 522.911 187.573Z" fill="url(#paint20_linear_178_3725)"/>
<path d="M528.302 172.573L526.715 169.976C526.433 169.488 526.028 169.083 525.54 168.802C525.052 168.52 524.498 168.372 523.934 168.373C523.377 168.372 522.829 168.52 522.347 168.801C521.866 169.082 521.467 169.486 521.194 169.972L519.683 172.63C519.314 173.27 519.105 173.989 519.073 174.726L518.703 197.303C518.703 197.787 521.16 198.222 523.748 198.256C526.336 198.29 528.811 197.946 528.819 197.46L529.189 174.82C529.202 174.036 528.677 173.259 528.302 172.573Z" fill="url(#paint21_linear_178_3725)"/>
<path d="M355.39 96.6731C370.939 102.179 385.985 109.01 400.363 117.089L516.317 98.1727L521.802 99.8515L522.271 98.3271L522.433 97.7992L418.01 0L276.673 22.7829L276.543 23.206L276.074 24.7304L280.365 26.0414L355.39 96.6731Z" fill="url(#paint22_linear_178_3725)"/>
<path d="M403.729 119.005L521.478 99.7948L417.307 1.73828L276.062 24.7727L350.731 95.0766C369.159 101.246 386.916 109.263 403.729 119.005Z" fill="url(#paint23_linear_178_3725)"/>
<path d="M404.205 119.275C417.866 127.427 440.521 142.309 454.532 155.273L473.716 92.6101C474.327 90.6188 473.81 88.3683 472.322 85.9044C465.39 74.5472 437.21 59.1884 401.588 48.3C365.967 37.4116 334.011 34.3894 321.906 39.9289C320.033 40.794 318.631 41.8459 317.798 43.1131C317.443 43.5957 317.171 44.1341 316.993 44.7061L304.961 84.0198C315.616 85.6576 326.167 87.9086 336.562 90.7617C371.251 100.278 395.602 114.143 404.205 119.275Z" fill="url(#paint24_linear_178_3725)"/>
<path style="mix-blend-mode:multiply" opacity="0.3" d="M342.139 92.3634C341.574 89.6196 341.43 86.8059 341.711 84.0189C343.447 66.6001 328.037 51.2127 317.798 43.116L317.544 42.9102L304.957 84.0208C317.528 85.9475 329.951 88.7349 342.139 92.3634Z" fill="url(#paint25_linear_178_3725)"/>
<defs>
<filter id="filter0_d_178_3725" x="99.9922" y="104.246" width="164.246" height="169.025" filterUnits="userSpaceOnUse" color-interpolation-filters="sRGB">
<feFlood flood-opacity="0" result="BackgroundImageFix"/>
<feColorMatrix in="SourceAlpha" type="matrix" values="0 0 0 0 0 0 0 0 0 0 0 0 0 0 0 0 0 0 127 0" result="hardAlpha"/>
<feOffset dx="-12" dy="10"/>
<feGaussianBlur stdDeviation="20"/>
<feComposite in2="hardAlpha" operator="out"/>
<feColorMatrix type="matrix" values="0 0 0 0 0 0 0 0 0 0 0 0 0 0 0 0 0 0 0.16 0"/>
<feBlend mode="normal" in2="BackgroundImageFix" result="effect1_dropShadow_178_3725"/>
<feBlend mode="normal" in="SourceGraphic" in2="effect1_dropShadow_178_3725" result="shape"/>
</filter>
<linearGradient id="paint0_linear_178_3725" x1="248.249" y1="407.84" x2="249.711" y2="462.758" gradientUnits="userSpaceOnUse">
<stop stop-color="#444B8C"/>
<stop offset="1" stop-color="#26264F"/>
</linearGradient>
<linearGradient id="paint1_linear_178_3725" x1="159.707" y1="192.534" x2="450.71" y2="334.241" gradientUnits="userSpaceOnUse">
<stop stop-color="#444B8C"/>
<stop offset="0.64" stop-color="#313365"/>
<stop offset="1" stop-color="#26264F"/>
</linearGradient>
<linearGradient id="paint2_linear_178_3725" x1="194.827" y1="651.259" x2="236.112" y2="150.122" gradientUnits="userSpaceOnUse">
<stop stop-color="white"/>
<stop offset="1" stop-color="#EBEFF2"/>
</linearGradient>
<linearGradient id="paint3_linear_178_3725" x1="240400" y1="128231" x2="331845" y2="392053" gradientUnits="userSpaceOnUse">
<stop stop-color="#444B8C"/>
<stop offset="1" stop-color="#26264F"/>
</linearGradient>
<linearGradient id="paint4_linear_178_3725" x1="21636.5" y1="15349.3" x2="21632.4" y2="14083.9" gradientUnits="userSpaceOnUse">
<stop stop-color="#444B8C"/>
<stop offset="1" stop-color="#26264F"/>
</linearGradient>
<linearGradient id="paint5_linear_178_3725" x1="7884.04" y1="18499.4" x2="7636.15" y2="16452.6" gradientUnits="userSpaceOnUse">
<stop stop-color="#FFC444"/>
<stop offset="1" stop-color="#F36F56"/>
</linearGradient>
<linearGradient id="paint6_linear_178_3725" x1="9979.86" y1="18952.9" x2="9722.78" y2="16830.2" gradientUnits="userSpaceOnUse">
<stop stop-color="#FFC444"/>
<stop offset="1" stop-color="#F36F56"/>
</linearGradient>
<linearGradient id="paint7_linear_178_3725" x1="17500.7" y1="29345.8" x2="17829.5" y2="27173.7" gradientUnits="userSpaceOnUse">
<stop stop-color="#444B8C"/>
<stop offset="1" stop-color="#26264F"/>
</linearGradient>
<linearGradient id="paint8_linear_178_3725" x1="87660.8" y1="294163" x2="112346" y2="379366" gradientUnits="userSpaceOnUse">
<stop stop-color="#311944"/>
<stop offset="1" stop-color="#893976"/>
</linearGradient>
<linearGradient id="paint9_linear_178_3725" x1="81936.5" y1="294858" x2="108212" y2="379268" gradientUnits="userSpaceOnUse">
<stop stop-color="#311944"/>
<stop offset="1" stop-color="#893976"/>
</linearGradient>
<linearGradient id="paint10_linear_178_3725" x1="79044.6" y1="351094" x2="99490.7" y2="348360" gradientUnits="userSpaceOnUse">
<stop stop-color="#311944"/>
<stop offset="1" stop-color="#893976"/>
</linearGradient>
<linearGradient id="paint11_linear_178_3725" x1="275161" y1="312005" x2="214551" y2="211537" gradientUnits="userSpaceOnUse">
<stop stop-color="#FF9085"/>
<stop offset="1" stop-color="#FB6FBB"/>
</linearGradient>
<linearGradient id="paint12_linear_178_3725" x1="394024" y1="13482" x2="416055" y2="52319.7" gradientUnits="userSpaceOnUse">
<stop stop-color="#FF9085"/>
<stop offset="1" stop-color="#FB6FBB"/>
</linearGradient>
<linearGradient id="paint13_linear_178_3725" x1="31695.7" y1="36925.2" x2="33855.1" y2="39147.1" gradientUnits="userSpaceOnUse">
<stop stop-color="#FFC444"/>
<stop offset="1" stop-color="#F36F56"/>
</linearGradient>
<linearGradient id="paint14_linear_178_3725" x1="64154.7" y1="75562.7" x2="71654.8" y2="85727.5" gradientUnits="userSpaceOnUse">
<stop stop-color="#444B8C"/>
<stop offset="1" stop-color="#26264F"/>
</linearGradient>
<linearGradient id="paint15_linear_178_3725" x1="49787.8" y1="61524.9" x2="54955.4" y2="69870.9" gradientUnits="userSpaceOnUse">
<stop stop-color="#FFC444"/>
<stop offset="1" stop-color="#F36F56"/>
</linearGradient>
<linearGradient id="paint16_linear_178_3725" x1="17286.1" y1="10226" x2="17099.4" y2="9695.27" gradientUnits="userSpaceOnUse">
<stop stop-color="#AA80F9"/>
<stop offset="1" stop-color="#6165D7"/>
</linearGradient>
<linearGradient id="paint17_linear_178_3725" x1="9511.78" y1="20392.2" x2="9982.49" y2="20755.4" gradientUnits="userSpaceOnUse">
<stop stop-color="#FFC444"/>
<stop offset="1" stop-color="#F36F56"/>
</linearGradient>
<linearGradient id="paint18_linear_178_3725" x1="93114.6" y1="152434" x2="62128" y2="112054" gradientUnits="userSpaceOnUse">
<stop stop-color="#FF9085"/>
<stop offset="1" stop-color="#FB6FBB"/>
</linearGradient>
<linearGradient id="paint19_linear_178_3725" x1="209137" y1="188730" x2="173963" y2="130132" gradientUnits="userSpaceOnUse">
<stop stop-color="#444B8C"/>
<stop offset="1" stop-color="#26264F"/>
</linearGradient>
<linearGradient id="paint20_linear_178_3725" x1="449149" y1="-10566.9" x2="385403" y2="135198" gradientUnits="userSpaceOnUse">
<stop stop-color="#FFC444"/>
<stop offset="1" stop-color="#F36F56"/>
</linearGradient>
<linearGradient id="paint21_linear_178_3725" x1="34861.5" y1="31474.6" x2="39174.5" y2="18279.3" gradientUnits="userSpaceOnUse">
<stop stop-color="#FFC444"/>
<stop offset="1" stop-color="#F36F56"/>
</linearGradient>
<linearGradient id="paint22_linear_178_3725" x1="223278" y1="1.24682e+06" x2="241331" y2="1.16954e+06" gradientUnits="userSpaceOnUse">
<stop stop-color="#AA80F9"/>
<stop offset="1" stop-color="#6165D7"/>
</linearGradient>
<linearGradient id="paint23_linear_178_3725" x1="130923" y1="196918" x2="358406" y2="428552" gradientUnits="userSpaceOnUse">
<stop stop-color="#444B8C"/>
<stop offset="1" stop-color="#26264F"/>
</linearGradient>
<linearGradient id="paint24_linear_178_3725" x1="90275.6" y1="198279" x2="305125" y2="347928" gradientUnits="userSpaceOnUse">
<stop stop-color="#5159A3"/>
<stop offset="1" stop-color="#26264F"/>
</linearGradient>
<linearGradient id="paint25_linear_178_3725" x1="57871.5" y1="55729.4" x2="64943.4" y2="35798.9" gradientUnits="userSpaceOnUse">
<stop stop-color="#AA80F9"/>
<stop offset="1" stop-color="#6165D7"/>
</linearGradient>
<clipPath id="clip0_178_3725">
<rect width="62" height="62" fill="white" transform="translate(49.8945 253.107) rotate(-0.2)"/>
</clipPath>
<clipPath id="clip1_178_3725">
<rect width="52" height="52" fill="white" transform="translate(272.91 157.092) rotate(-0.2)"/>
</clipPath>
<clipPath id="clip2_178_3725">
<rect width="51" height="51" fill="white" transform="translate(168.523 153.701) rotate(-0.2)"/>
</clipPath>
<clipPath id="clip3_178_3725">
<rect width="66" height="66" fill="white" transform="translate(45.9727 144.203) rotate(-0.2)"/>
</clipPath>
<clipPath id="clip4_178_3725">
<rect width="55" height="55" fill="white" transform="translate(164.906 255.096) rotate(-0.2)"/>
</clipPath>
</defs>
</svg>
