<svg width="16" height="16" viewBox="0 0 16 16" fill="none" xmlns="http://www.w3.org/2000/svg">
<path d="M12.8835 6.31201C12.8835 6.31201 12.5215 10.802 12.3115 12.6933C12.2115 13.5967 11.6535 14.126 10.7395 14.1427C9.00019 14.174 7.25885 14.176 5.52018 14.1393C4.64085 14.1213 4.09218 13.5853 3.99418 12.698C3.78285 10.79 3.42285 6.31201 3.42285 6.31201" stroke="#E15A5A" stroke-width="1.5" stroke-linecap="round" stroke-linejoin="round"/>
<path d="M13.8053 4.15975H2.5" stroke="#E15A5A" stroke-width="1.5" stroke-linecap="round" stroke-linejoin="round"/>
<path d="M11.6274 4.15974C11.104 4.15974 10.6534 3.78974 10.5507 3.27707L10.3887 2.46641C10.2887 2.09241 9.95004 1.83374 9.56404 1.83374H6.74204C6.35604 1.83374 6.01738 2.09241 5.91738 2.46641L5.75538 3.27707C5.65271 3.78974 5.20204 4.15974 4.67871 4.15974" stroke="#E15A5A" stroke-width="1.5" stroke-linecap="round" stroke-linejoin="round"/>
</svg>
