<svg width="112" height="112" viewBox="0 0 112 112" fill="none" xmlns="http://www.w3.org/2000/svg">
<rect width="112" height="112" rx="16" fill="white"/>
<g clip-path="url(#clip0_255_9912)">
<path d="M60.8515 73.959C59.9293 71.8964 59.4463 69.6534 59.4463 67.3739L59.4068 60.0654C59.4068 49.5897 50.9146 41.0977 40.439 41.0977C38.0524 41.0977 35.7685 41.5377 33.6649 42.3422L27.4106 49.7664L27.3711 76.2625L40.4392 85.8071L59.4524 77.5039C60.8162 76.9084 61.459 75.3176 60.8515 73.959V73.959Z" fill="#785353"/>
<path d="M33.6647 42.3418C26.5393 45.0713 21.4712 51.9795 21.4712 60.065L21.4317 67.3735C21.4317 69.653 20.9487 71.896 20.0265 73.9588C19.419 75.3174 20.0618 76.9081 21.4256 77.5037L33.6647 82.8485V42.3418Z" fill="#6E4848"/>
<path d="M52.4899 85.5133L49.5564 84.18C48.1055 83.5204 47.1739 82.0737 47.1739 80.4799V78.9141H33.6255V80.4799C33.6255 82.0737 32.6939 83.5206 31.2428 84.1801L28.3094 85.5135L26.6328 93.7347H54.7695L52.4899 85.5133Z" fill="#D19A6E"/>
<path d="M33.6252 78.8754C35.6997 79.8359 38.0023 80.3869 40.4388 80.3869C42.844 80.3869 45.1195 79.8508 47.1734 78.9135V72.2578H33.625V78.8754H33.6252Z" fill="#C38C66"/>
<path d="M52.4505 60.0806C42.5164 61.2815 36.9225 57.2907 34.2565 54.4201C33.7374 53.8613 32.8482 53.868 32.3089 54.4075L28.0416 58.6744C27.2794 59.4366 27.2891 60.4704 27.2891 61.5483V63.665L33.627 75.8083C35.3631 76.8527 37.3525 77.5094 39.4976 77.6484C47.3885 78.1593 53.9479 71.9103 53.9479 64.1293V61.4389C53.9479 60.6327 53.2508 59.9838 52.4505 60.0806V60.0806Z" fill="#E2A975"/>
<path d="M69.7812 26.1936C69.7812 32.9279 74.3499 37.5704 81.0843 37.5704C84.9834 37.5704 88.4552 36.557 90.6872 33.709C92.3103 31.638 93.278 29.0288 93.278 26.1936C93.2778 19.4592 87.8186 14 81.0843 14C78.2433 14 75.6293 14.9716 73.5562 16.6007C70.7154 18.8331 69.7812 22.3002 69.7812 26.1936V26.1936Z" fill="#FAF5DC"/>
<path d="M35.6562 37.0322C35.6562 45.263 41.6526 51.0781 49.8834 51.0781C54.5023 51.0781 58.6302 49.8343 61.3639 46.5357C63.5016 43.9561 64.7867 40.6442 64.7867 37.0322C64.7867 28.8013 58.1143 22.1289 49.8834 22.1289C46.2824 22.1289 42.9797 23.406 40.4036 25.5321C37.0915 28.2657 35.6562 32.4023 35.6562 37.0322V37.0322Z" fill="#FAF5DC"/>
<path d="M81.1804 30.1961C80.4315 30.1961 79.8256 29.5894 79.8256 28.8413V25.6122C79.8256 24.8641 80.4317 24.2573 81.1804 24.2573C81.6593 24.2573 82.1053 24.0656 82.436 23.7169C82.7681 23.369 82.9361 22.9119 82.911 22.4295C82.8647 21.5292 82.1197 20.8101 81.2174 20.7922C81.2054 20.7915 81.1936 20.7915 81.1803 20.7915C80.3176 20.7915 79.5833 21.426 79.4642 22.2801C79.4535 22.3614 79.447 22.4422 79.447 22.5242C79.447 23.2723 78.8409 23.879 78.0921 23.879C77.3432 23.879 76.7373 23.2723 76.7373 22.5242C76.7373 22.3139 76.7519 22.1075 76.7809 21.9044C77.0905 19.6797 79.0686 18.0443 81.2715 18.0827C83.5882 18.129 85.4974 19.9766 85.6178 22.2901C85.68 23.5219 85.2487 24.6915 84.4007 25.584C83.8847 26.127 83.2389 26.5273 82.5351 26.7536V28.8413C82.5353 29.5894 81.9292 30.1961 81.1804 30.1961V30.1961Z" fill="#FF8086"/>
<path d="M81.1815 34.2272C81.9297 34.2272 82.5363 33.6207 82.5363 32.8724C82.5363 32.1242 81.9297 31.5176 81.1815 31.5176C80.4332 31.5176 79.8267 32.1242 79.8267 32.8724C79.8267 33.6207 80.4332 34.2272 81.1815 34.2272Z" fill="#FF8086"/>
<path d="M73.802 59.1832C73.053 59.1832 72.4472 58.5765 72.4472 57.8283V53.5952C72.4472 52.8471 73.0532 52.2404 73.802 52.2404C74.5468 52.2404 75.2415 51.9419 75.7561 51.4009C76.2695 50.8598 76.5315 50.1499 76.4918 49.4024C76.419 48.002 75.2626 46.8826 73.8576 46.8548C73.8404 46.8542 73.8218 46.8542 73.8033 46.8542C72.4631 46.8542 71.3212 47.8412 71.1347 49.1709C71.1187 49.2907 71.1096 49.4177 71.1096 49.5473C71.1096 50.2954 70.5035 50.9021 69.7547 50.9021C69.0059 50.9021 68.3999 50.2954 68.3999 49.5473C68.3999 49.2933 68.4171 49.0444 68.4501 48.8005C68.8245 46.1259 71.1148 44.1445 73.8033 44.1445C73.8391 44.1445 73.8761 44.1445 73.9131 44.1452C76.7299 44.2021 79.052 46.4493 79.1988 49.2615C79.2756 50.7592 78.7503 52.1815 77.721 53.2664C77.0211 54.0027 76.1266 54.5226 75.1568 54.7761V57.8285C75.1568 58.5766 74.5508 59.1832 73.802 59.1832V59.1832Z" fill="#FF8086"/>
<path d="M62.077 93.9363V93.3613C62.077 91.2362 60.8349 89.3071 58.9003 88.4276L52.4898 85.5137L42.1352 90.4034C41.0363 90.9223 39.7629 90.9223 38.6641 90.4034L28.3095 85.5137L21.8989 88.4277C19.9643 89.3071 18.7222 91.2362 18.7222 93.3614V93.9365C18.7222 96.1812 20.5419 98.0009 22.7867 98.0009H58.0125C60.2572 98.0008 62.077 96.181 62.077 93.9363Z" fill="#F5EBCD"/>
<path d="M53.9478 61.4395V60.2845C53.9478 59.4783 53.2507 58.8294 52.4502 58.9262C42.5159 60.1272 36.922 56.1362 34.256 53.2658C33.7369 52.707 32.8477 52.7138 32.3084 53.2531L28.0415 57.5201C27.2793 58.2823 26.8511 59.316 26.8511 60.3939V63.6658C26.8511 68.7454 29.5177 73.3524 33.6269 75.8091V61.5913C33.6269 59.5728 35.812 58.2316 37.5931 59.1817C40.4095 60.6842 44.1415 61.8538 48.9358 61.8538C50.4887 61.8534 52.1664 61.7138 53.9478 61.4395V61.4395Z" fill="#D19A6E"/>
<path d="M49.8278 41.7436C49.0789 41.7436 48.473 41.1369 48.473 40.3888V36.8071C48.473 36.059 49.079 35.4523 49.8278 35.4523C50.4007 35.4523 50.9339 35.2228 51.3295 34.8067C51.725 34.3907 51.9262 33.8448 51.8958 33.27C51.8402 32.1937 50.9511 31.3337 49.8714 31.3119C49.8582 31.3112 49.8437 31.3112 49.8291 31.3112C48.7998 31.3112 47.9212 32.0694 47.7783 33.0915C47.7637 33.1907 47.7585 33.2852 47.7585 33.3819C47.7585 34.13 47.1524 34.7367 46.4037 34.7367C45.6547 34.7367 45.0488 34.13 45.0488 33.3819C45.0488 33.1543 45.0647 32.93 45.0951 32.711C45.4245 30.3552 47.4515 28.6016 49.8291 28.6016C49.8623 28.6016 49.8939 28.6016 49.9257 28.6022C52.4198 28.6531 54.4732 30.6417 54.6028 33.1299C54.6703 34.455 54.206 35.7132 53.2943 36.6731C52.7135 37.2844 51.9805 37.7275 51.1826 37.9644V40.389C51.1826 41.1369 50.5766 41.7436 49.8278 41.7436V41.7436Z" fill="#FF8086"/>
<path d="M49.828 46.1901C50.5762 46.1901 51.1828 45.5836 51.1828 44.8353C51.1828 44.087 50.5762 43.4805 49.828 43.4805C49.0797 43.4805 48.4731 44.087 48.4731 44.8353C48.4731 45.5836 49.0797 46.1901 49.828 46.1901Z" fill="#FF8086"/>
<path d="M51.8591 49.9587C43.6282 49.9587 36.9558 43.2863 36.9558 35.0554C36.9558 31.4432 38.2655 28.1108 40.4034 25.5312C37.1054 28.2649 34.98 32.413 34.98 37.0314C34.98 45.2622 41.6524 51.9346 49.8833 51.9346C54.5019 51.9346 58.6301 49.8335 61.3637 46.535C58.784 48.6732 55.4716 49.9587 51.8591 49.9587V49.9587Z" fill="#F5EBCD"/>
<path d="M83.1165 36.3558C76.3822 36.3558 70.9229 30.8965 70.9229 24.1622C70.9229 21.3133 71.9189 18.6774 73.5561 16.6016C70.7253 18.8345 68.8906 22.309 68.8906 26.1945C68.8906 32.9287 74.3498 38.3881 81.0842 38.3881C84.9694 38.3881 88.4543 36.5407 90.6872 33.7098C88.6113 35.3472 85.9654 36.3558 83.1165 36.3558V36.3558Z" fill="#F5EBCD"/>
<path d="M73.8021 64.489C74.5503 64.489 75.1569 63.8824 75.1569 63.1341C75.1569 62.3859 74.5503 61.7793 73.8021 61.7793C73.0538 61.7793 72.4473 62.3859 72.4473 63.1341C72.4473 63.8824 73.0538 64.489 73.8021 64.489Z" fill="#FF8086"/>
</g>
<defs>
<clipPath id="clip0_255_9912">
<rect width="84" height="84" fill="white" transform="translate(14 14)"/>
</clipPath>
</defs>
</svg>
