<svg width="48" height="46" viewBox="0 0 48 46" fill="none" xmlns="http://www.w3.org/2000/svg">
<g clip-path="url(#clip0_823_29158)">
<path d="M31.8472 40.209C31.804 40.0721 31.3989 38.9374 30.7087 36.9295L30.5762 36.1855H17.7871L17.5432 36.9295C16.853 38.9403 16.4488 40.0721 16.4056 40.209C16.3173 40.4915 16.397 40.8793 16.9509 40.7021C17.5048 40.525 19.1637 39.9007 19.2165 39.8806C19.182 39.8988 19.1349 40.1343 19.1205 40.1679C18.9564 40.6725 18.7663 41.1713 18.5839 41.6712C18.5128 41.8684 18.3986 42.1987 18.5906 42.3692C18.6429 42.4072 18.7034 42.4325 18.7672 42.4431C18.831 42.4538 18.8964 42.4494 18.9583 42.4305C19.806 42.2246 20.6296 41.787 21.3852 41.3255C22.086 41.6846 22.7484 41.9268 24.1231 41.9268C25.4978 41.9268 26.1602 41.6846 26.861 41.3255C27.6165 41.787 28.4402 42.2246 29.2888 42.4305C29.3505 42.4494 29.4158 42.4537 29.4795 42.4431C29.5431 42.4325 29.6034 42.4072 29.6556 42.3692C29.8476 42.1987 29.7333 41.8684 29.6623 41.6712C29.4799 41.1713 29.2908 40.6725 29.1266 40.1679C29.1151 40.1334 29.068 39.8978 29.0306 39.8806C29.0834 39.9007 30.7509 40.5307 31.2962 40.7021C31.8415 40.8735 31.9346 40.4915 31.8472 40.209ZM18.4082 38.587C18.6353 38.0488 18.8208 37.494 18.9631 36.9276C19.0207 36.6241 19.7954 36.6279 19.7954 36.6279C19.7954 36.6279 21.438 36.2344 20.7727 36.9276C20.1074 37.6209 19.0936 38.181 18.4082 38.587ZM20.6344 39.8241C20.7703 39.5569 20.8701 39.2729 20.9311 38.9796C20.9311 38.9796 21.9141 38.5784 22.9951 36.9276C22.4498 38.114 21.7778 39.1998 20.6344 39.826V39.8241ZM24.126 40.5978C23.6669 40.5989 23.2136 40.4961 22.8002 40.2971C23.5586 39.7236 24.0972 38.587 24.0972 38.587C24.0972 38.587 24.6972 39.7216 25.4556 40.2952C25.0397 40.4914 24.586 40.5947 24.126 40.5978ZM25.2578 36.9295C26.3378 38.5803 27.3208 38.9815 27.3208 38.9815C27.3818 39.2748 27.4816 39.5588 27.6175 39.826C26.4741 39.1998 25.8031 38.114 25.2578 36.9295ZM27.4792 36.9295C26.8149 36.2363 28.4575 36.6298 28.4575 36.6298C28.4575 36.6298 29.2312 36.6298 29.2888 36.9295C29.4312 37.4954 29.617 38.0496 29.8447 38.587C29.1583 38.181 28.1436 37.6237 27.4792 36.9295Z" fill="#1B2C3E"/>
<path d="M31.8472 40.209C31.804 40.0721 31.3989 38.9374 30.7087 36.9295L30.5762 36.1855H17.7871L17.5432 36.9295C16.853 38.9403 16.4488 40.0721 16.4056 40.209C16.3173 40.4915 16.397 40.8793 16.9509 40.7021C17.5048 40.525 19.1637 39.9007 19.2165 39.8806C19.182 39.8988 19.1349 40.1343 19.1205 40.1679C18.9564 40.6725 18.7663 41.1713 18.5839 41.6712C18.5128 41.8684 18.3986 42.1987 18.5906 42.3692C18.6429 42.4072 18.7034 42.4325 18.7672 42.4431C18.831 42.4538 18.8964 42.4494 18.9583 42.4305C19.806 42.2246 20.6296 41.787 21.3852 41.3255C22.086 41.6846 22.7484 41.9268 24.1231 41.9268C25.4978 41.9268 26.1602 41.6846 26.861 41.3255C27.6165 41.787 28.4402 42.2246 29.2888 42.4305C29.3505 42.4494 29.4158 42.4537 29.4795 42.4431C29.5431 42.4325 29.6034 42.4072 29.6556 42.3692C29.8476 42.1987 29.7333 41.8684 29.6623 41.6712C29.4799 41.1713 29.2908 40.6725 29.1266 40.1679C29.1151 40.1334 29.068 39.8978 29.0306 39.8806C29.0834 39.9007 30.7509 40.5307 31.2962 40.7021C31.8415 40.8735 31.9346 40.4915 31.8472 40.209ZM18.4082 38.587C18.6353 38.0488 18.8208 37.494 18.9631 36.9276C19.0207 36.6241 19.7954 36.6279 19.7954 36.6279C19.7954 36.6279 21.438 36.2344 20.7727 36.9276C20.1074 37.6209 19.0936 38.181 18.4082 38.587ZM20.6344 39.8241C20.7703 39.5569 20.8701 39.2729 20.9311 38.9796C20.9311 38.9796 21.9141 38.5784 22.9951 36.9276C22.4498 38.114 21.7778 39.1998 20.6344 39.826V39.8241ZM24.126 40.5978C23.6669 40.5989 23.2136 40.4961 22.8002 40.2971C23.5586 39.7236 24.0972 38.587 24.0972 38.587C24.0972 38.587 24.6972 39.7216 25.4556 40.2952C25.0397 40.4914 24.586 40.5947 24.126 40.5978ZM25.2578 36.9295C26.3378 38.5803 27.3208 38.9815 27.3208 38.9815C27.3818 39.2748 27.4816 39.5588 27.6175 39.826C26.4741 39.1998 25.8031 38.114 25.2578 36.9295ZM27.4792 36.9295C26.8149 36.2363 28.4575 36.6298 28.4575 36.6298C28.4575 36.6298 29.2312 36.6298 29.2888 36.9295C29.4312 37.4954 29.617 38.0496 29.8447 38.587C29.1583 38.181 28.1436 37.6237 27.4792 36.9295Z" fill="url(#paint0_linear_823_29158)"/>
<path d="M40.9131 35.778C40.8901 35.8105 40.8651 35.8421 40.8411 35.8737C38.8935 38.4289 36.3943 40.5142 33.5288 41.975C30.5653 43.4749 27.289 44.2565 23.9658 44.2565C20.6426 44.2565 17.3662 43.4749 14.4027 41.975C11.5369 40.5134 9.03747 38.4275 7.08945 35.8718L7.01745 35.776H4.87473L4.96497 35.9101C5.19921 36.2561 5.44337 36.5954 5.69745 36.9279C9.88977 42.4423 16.5138 45.9994 23.9663 45.9994C31.4187 45.9994 38.0408 42.4423 42.2351 36.9298C42.4949 36.589 42.7455 36.2401 42.9867 35.8833C43.0107 35.8488 43.0338 35.8134 43.0578 35.778H40.9131ZM38.925 5.55302C38.4834 5.17002 38.0277 4.8068 37.5579 4.46337C33.6595 1.58986 28.9465 0.0263074 24.0991 -0.00157367C19.2518 -0.0294548 14.521 1.47978 10.5896 4.30825C10.1147 4.64785 9.65425 5.00532 9.20817 5.38067C6.09069 8.01201 3.7261 11.4187 2.3541 15.2553C0.982097 19.0919 0.651456 23.2222 1.39569 27.2273C1.46673 27.6155 1.54801 27.9985 1.63953 28.3764H3.44433C3.40785 28.2413 3.37425 28.1054 3.34161 27.9694C3.25809 27.6199 3.18225 27.2637 3.11601 26.9047C2.42923 23.2028 2.73558 19.3856 4.00402 15.8398C5.27246 12.2941 7.45793 9.14565 10.3391 6.71353C10.7471 6.36978 11.1752 6.03561 11.613 5.72059C14.8847 3.35934 18.77 1.98989 22.8027 1.77658C23.2047 1.56309 23.6537 1.45287 24.1091 1.45588C24.5645 1.45889 25.012 1.57503 25.4111 1.79382C26.7106 1.88108 27.9993 2.08815 29.2607 2.41237C29.74 2.53557 30.2149 2.67601 30.6853 2.83368C32.7767 3.53398 34.7449 4.55724 36.5183 5.86613C36.9445 6.1802 37.3698 6.51916 37.7807 6.87248C40.0578 8.8387 41.8959 11.2598 43.1759 13.9792C44.4999 16.8023 45.1824 19.8822 45.1746 22.999C45.1749 24.3116 45.0547 25.6215 44.8155 26.9123C44.7503 27.2676 44.6744 27.6238 44.5899 27.9752C44.5573 28.1098 44.5253 28.2449 44.4939 28.3802H46.2968C46.389 27.9972 46.4706 27.6142 46.5416 27.2312C47.2774 23.2691 46.9616 19.1839 45.6255 15.3812C44.2894 11.5784 41.9795 8.19027 38.925 5.55302Z" fill="#1B2C3E"/>
<path d="M40.9131 35.778C40.8901 35.8105 40.8651 35.8421 40.8411 35.8737C38.8935 38.4289 36.3943 40.5142 33.5288 41.975C30.5653 43.4749 27.289 44.2565 23.9658 44.2565C20.6426 44.2565 17.3662 43.4749 14.4027 41.975C11.5369 40.5134 9.03747 38.4275 7.08945 35.8718L7.01745 35.776H4.87473L4.96497 35.9101C5.19921 36.2561 5.44337 36.5954 5.69745 36.9279C9.88977 42.4423 16.5138 45.9994 23.9663 45.9994C31.4187 45.9994 38.0408 42.4423 42.2351 36.9298C42.4949 36.589 42.7455 36.2401 42.9867 35.8833C43.0107 35.8488 43.0338 35.8134 43.0578 35.778H40.9131ZM38.925 5.55302C38.4834 5.17002 38.0277 4.8068 37.5579 4.46337C33.6595 1.58986 28.9465 0.0263074 24.0991 -0.00157367C19.2518 -0.0294548 14.521 1.47978 10.5896 4.30825C10.1147 4.64785 9.65425 5.00532 9.20817 5.38067C6.09069 8.01201 3.7261 11.4187 2.3541 15.2553C0.982097 19.0919 0.651456 23.2222 1.39569 27.2273C1.46673 27.6155 1.54801 27.9985 1.63953 28.3764H3.44433C3.40785 28.2413 3.37425 28.1054 3.34161 27.9694C3.25809 27.6199 3.18225 27.2637 3.11601 26.9047C2.42923 23.2028 2.73558 19.3856 4.00402 15.8398C5.27246 12.2941 7.45793 9.14565 10.3391 6.71353C10.7471 6.36978 11.1752 6.03561 11.613 5.72059C14.8847 3.35934 18.77 1.98989 22.8027 1.77658C23.2047 1.56309 23.6537 1.45287 24.1091 1.45588C24.5645 1.45889 25.012 1.57503 25.4111 1.79382C26.7106 1.88108 27.9993 2.08815 29.2607 2.41237C29.74 2.53557 30.2149 2.67601 30.6853 2.83368C32.7767 3.53398 34.7449 4.55724 36.5183 5.86613C36.9445 6.1802 37.3698 6.51916 37.7807 6.87248C40.0578 8.8387 41.8959 11.2598 43.1759 13.9792C44.4999 16.8023 45.1824 19.8822 45.1746 22.999C45.1749 24.3116 45.0547 25.6215 44.8155 26.9123C44.7503 27.2676 44.6744 27.6238 44.5899 27.9752C44.5573 28.1098 44.5253 28.2449 44.4939 28.3802H46.2968C46.389 27.9972 46.4706 27.6142 46.5416 27.2312C47.2774 23.2691 46.9616 19.1839 45.6255 15.3812C44.2894 11.5784 41.9795 8.19027 38.925 5.55302Z" fill="url(#paint1_linear_823_29158)"/>
<path d="M38.9238 5.55329C34.7824 8.99698 29.5586 10.8781 24.1667 10.8675C18.6836 10.8774 13.3776 8.93144 9.20703 5.38093C9.65503 5.00495 10.1155 4.6462 10.5885 4.30469C14.3847 7.50663 19.1951 9.26415 24.1667 9.26557C29.0541 9.26479 33.7887 7.56622 37.5568 4.46172C38.0266 4.80643 38.4822 5.17028 38.9238 5.55329Z" fill="#1B2C3E"/>
<path d="M38.9238 5.55329C34.7824 8.99698 29.5586 10.8781 24.1667 10.8675C18.6836 10.8774 13.3776 8.93144 9.20703 5.38093C9.65503 5.00495 10.1155 4.6462 10.5885 4.30469C14.3847 7.50663 19.1951 9.26415 24.1667 9.26557C29.0541 9.26479 33.7887 7.56622 37.5568 4.46172C38.0266 4.80643 38.4822 5.17028 38.9238 5.55329Z" fill="url(#paint2_linear_823_29158)"/>
<path d="M29.2603 2.41293C29.0658 1.66856 28.7048 0.97781 28.2043 0.392576C25.4572 -0.120016 22.6397 -0.130723 19.8888 0.360978C19.3853 0.942579 19.0198 1.62987 18.8193 2.37176C18.7057 2.7959 18.6482 3.23305 18.6484 3.67207C18.6484 6.53791 21.06 8.8618 24.034 8.8618C27.0081 8.8618 29.4196 6.53791 29.4196 3.67207C29.42 3.24733 29.3665 2.82425 29.2603 2.41293ZM24.0907 6.71409C22.6056 6.71409 21.4027 5.53731 21.4027 4.08476C21.4046 3.6095 21.536 3.14371 21.7829 2.73723C22.0298 2.33075 22.3828 1.99888 22.8043 1.77714C23.2062 1.56365 23.6552 1.45343 24.1106 1.45644C24.566 1.45945 25.0135 1.57559 25.4126 1.79438C25.8262 2.01837 26.1719 2.34915 26.4134 2.75209C26.6549 3.15503 26.7834 3.61531 26.7854 4.08476C26.7854 5.53731 25.5768 6.71409 24.0907 6.71409Z" fill="#1B2C3E"/>
<path d="M29.2603 2.41293C29.0658 1.66856 28.7048 0.97781 28.2043 0.392576C25.4572 -0.120016 22.6397 -0.130723 19.8888 0.360978C19.3853 0.942579 19.0198 1.62987 18.8193 2.37176C18.7057 2.7959 18.6482 3.23305 18.6484 3.67207C18.6484 6.53791 21.06 8.8618 24.034 8.8618C27.0081 8.8618 29.4196 6.53791 29.4196 3.67207C29.42 3.24733 29.3665 2.82425 29.2603 2.41293ZM24.0907 6.71409C22.6056 6.71409 21.4027 5.53731 21.4027 4.08476C21.4046 3.6095 21.536 3.14371 21.7829 2.73723C22.0298 2.33075 22.3828 1.99888 22.8043 1.77714C23.2062 1.56365 23.6552 1.45343 24.1106 1.45644C24.566 1.45945 25.0135 1.57559 25.4126 1.79438C25.8262 2.01837 26.1719 2.34915 26.4134 2.75209C26.6549 3.15503 26.7834 3.61531 26.7854 4.08476C26.7854 5.53731 25.5768 6.71409 24.0907 6.71409Z" fill="url(#paint3_linear_823_29158)"/>
<path d="M24.2677 2.05163L24.5116 2.76402C24.5248 2.80106 24.5491 2.83315 24.5812 2.85593C24.6133 2.87871 24.6517 2.89109 24.6911 2.89137H25.4591C25.4985 2.89315 25.5364 2.90699 25.5676 2.93102C25.5989 2.95504 25.6219 2.98808 25.6337 3.02564C25.6454 3.0632 25.6453 3.10346 25.6333 3.14094C25.6213 3.17842 25.598 3.2113 25.5666 3.23512L24.9589 3.6526C24.9252 3.6762 24.9001 3.70998 24.8871 3.74894C24.8741 3.7879 24.8741 3.82999 24.8869 3.86899L25.1221 4.55458C25.1335 4.59212 25.1331 4.63226 25.1209 4.66956C25.1087 4.70686 25.0853 4.73952 25.0539 4.76313C25.0225 4.78674 24.9846 4.80015 24.9453 4.80155C24.9059 4.80295 24.8671 4.79228 24.8341 4.77097L24.1909 4.3286C24.1592 4.3072 24.1217 4.29576 24.0834 4.29576C24.0451 4.29576 24.0076 4.3072 23.9759 4.3286L23.3336 4.77097C23.3006 4.79228 23.2618 4.80295 23.2225 4.80155C23.1832 4.80015 23.1453 4.78674 23.1138 4.76313C23.0824 4.73952 23.059 4.70686 23.0468 4.66956C23.0346 4.63226 23.0342 4.59212 23.0456 4.55458L23.2799 3.86899C23.2928 3.83009 23.2929 3.78807 23.2801 3.74912C23.2673 3.71017 23.2423 3.67633 23.2088 3.6526L22.6031 3.23512C22.5716 3.21125 22.5483 3.17828 22.5364 3.14072C22.5244 3.10315 22.5243 3.06282 22.5362 3.02522C22.5481 2.98762 22.5713 2.95459 22.6027 2.93063C22.634 2.90668 22.6721 2.89297 22.7116 2.89137H23.4796C23.519 2.89109 23.5573 2.87871 23.5895 2.85593C23.6216 2.83315 23.6459 2.80106 23.6591 2.76402L23.9029 2.05163C23.9155 2.01331 23.94 1.97995 23.9727 1.9563C24.0055 1.93265 24.0449 1.91992 24.0853 1.91992C24.1258 1.91992 24.1652 1.93265 24.1979 1.9563C24.2307 1.97995 24.2551 2.01331 24.2677 2.05163Z" fill="#1B2C3E"/>
<path d="M24.2677 2.05163L24.5116 2.76402C24.5248 2.80106 24.5491 2.83315 24.5812 2.85593C24.6133 2.87871 24.6517 2.89109 24.6911 2.89137H25.4591C25.4985 2.89315 25.5364 2.90699 25.5676 2.93102C25.5989 2.95504 25.6219 2.98808 25.6337 3.02564C25.6454 3.0632 25.6453 3.10346 25.6333 3.14094C25.6213 3.17842 25.598 3.2113 25.5666 3.23512L24.9589 3.6526C24.9252 3.6762 24.9001 3.70998 24.8871 3.74894C24.8741 3.7879 24.8741 3.82999 24.8869 3.86899L25.1221 4.55458C25.1335 4.59212 25.1331 4.63226 25.1209 4.66956C25.1087 4.70686 25.0853 4.73952 25.0539 4.76313C25.0225 4.78674 24.9846 4.80015 24.9453 4.80155C24.9059 4.80295 24.8671 4.79228 24.8341 4.77097L24.1909 4.3286C24.1592 4.3072 24.1217 4.29576 24.0834 4.29576C24.0451 4.29576 24.0076 4.3072 23.9759 4.3286L23.3336 4.77097C23.3006 4.79228 23.2618 4.80295 23.2225 4.80155C23.1832 4.80015 23.1453 4.78674 23.1138 4.76313C23.0824 4.73952 23.059 4.70686 23.0468 4.66956C23.0346 4.63226 23.0342 4.59212 23.0456 4.55458L23.2799 3.86899C23.2928 3.83009 23.2929 3.78807 23.2801 3.74912C23.2673 3.71017 23.2423 3.67633 23.2088 3.6526L22.6031 3.23512C22.5716 3.21125 22.5483 3.17828 22.5364 3.14072C22.5244 3.10315 22.5243 3.06282 22.5362 3.02522C22.5481 2.98762 22.5713 2.95459 22.6027 2.93063C22.634 2.90668 22.6721 2.89297 22.7116 2.89137H23.4796C23.519 2.89109 23.5573 2.87871 23.5895 2.85593C23.6216 2.83315 23.6459 2.80106 23.6591 2.76402L23.9029 2.05163C23.9155 2.01331 23.94 1.97995 23.9727 1.9563C24.0055 1.93265 24.0449 1.91992 24.0853 1.91992C24.1258 1.91992 24.1652 1.93265 24.1979 1.9563C24.2307 1.97995 24.2551 2.01331 24.2677 2.05163Z" fill="url(#paint4_linear_823_29158)"/>
<path d="M11.6233 9.43024L11.8672 10.1426C11.8804 10.1797 11.9047 10.2118 11.9368 10.2345C11.9689 10.2573 12.0073 10.2697 12.0467 10.27H12.8147C12.8541 10.2718 12.892 10.2856 12.9232 10.3096C12.9545 10.3337 12.9775 10.3667 12.9893 10.4043C13.001 10.4418 13.0009 10.4821 12.9889 10.5196C12.9769 10.557 12.9536 10.5899 12.9222 10.6137L12.3174 11.0312C12.2837 11.0548 12.2585 11.0886 12.2456 11.1276C12.2326 11.1665 12.2326 11.2086 12.2454 11.2476L12.4806 11.9332C12.492 11.9707 12.4916 12.0109 12.4794 12.0482C12.4672 12.0855 12.4438 12.1181 12.4124 12.1417C12.381 12.1653 12.343 12.1788 12.3037 12.1802C12.2644 12.1816 12.2256 12.1709 12.1926 12.1496L11.5494 11.7072C11.5176 11.6858 11.4802 11.6744 11.4419 11.6744C11.4035 11.6744 11.3661 11.6858 11.3343 11.7072L10.6921 12.1496C10.6591 12.1709 10.6203 12.1816 10.581 12.1802C10.5417 12.1788 10.5037 12.1653 10.4723 12.1417C10.4409 12.1181 10.4175 12.0855 10.4053 12.0482C10.3931 12.0109 10.3927 11.9707 10.4041 11.9332L10.6383 11.2476C10.6513 11.2087 10.6514 11.1667 10.6386 11.1277C10.6258 11.0888 10.6008 11.0549 10.5673 11.0312L9.96251 10.6137C9.93111 10.5899 9.90782 10.557 9.89582 10.5196C9.88382 10.4821 9.88368 10.4418 9.89543 10.4043C9.90718 10.3667 9.93024 10.3337 9.96148 10.3096C9.99272 10.2856 10.0306 10.2718 10.07 10.27H10.838C10.8774 10.2697 10.9158 10.2573 10.9479 10.2345C10.98 10.2118 11.0043 10.1797 11.0175 10.1426L11.2614 9.43024C11.2746 9.39294 11.2992 9.36066 11.3316 9.33783C11.364 9.31499 11.4027 9.30273 11.4423 9.30273C11.482 9.30273 11.5207 9.31499 11.5531 9.33783C11.5855 9.36066 11.6101 9.39294 11.6233 9.43024Z" fill="#1B2C3E"/>
<path d="M11.6233 9.43024L11.8672 10.1426C11.8804 10.1797 11.9047 10.2118 11.9368 10.2345C11.9689 10.2573 12.0073 10.2697 12.0467 10.27H12.8147C12.8541 10.2718 12.892 10.2856 12.9232 10.3096C12.9545 10.3337 12.9775 10.3667 12.9893 10.4043C13.001 10.4418 13.0009 10.4821 12.9889 10.5196C12.9769 10.557 12.9536 10.5899 12.9222 10.6137L12.3174 11.0312C12.2837 11.0548 12.2585 11.0886 12.2456 11.1276C12.2326 11.1665 12.2326 11.2086 12.2454 11.2476L12.4806 11.9332C12.492 11.9707 12.4916 12.0109 12.4794 12.0482C12.4672 12.0855 12.4438 12.1181 12.4124 12.1417C12.381 12.1653 12.343 12.1788 12.3037 12.1802C12.2644 12.1816 12.2256 12.1709 12.1926 12.1496L11.5494 11.7072C11.5176 11.6858 11.4802 11.6744 11.4419 11.6744C11.4035 11.6744 11.3661 11.6858 11.3343 11.7072L10.6921 12.1496C10.6591 12.1709 10.6203 12.1816 10.581 12.1802C10.5417 12.1788 10.5037 12.1653 10.4723 12.1417C10.4409 12.1181 10.4175 12.0855 10.4053 12.0482C10.3931 12.0109 10.3927 11.9707 10.4041 11.9332L10.6383 11.2476C10.6513 11.2087 10.6514 11.1667 10.6386 11.1277C10.6258 11.0888 10.6008 11.0549 10.5673 11.0312L9.96251 10.6137C9.93111 10.5899 9.90782 10.557 9.89582 10.5196C9.88382 10.4821 9.88368 10.4418 9.89543 10.4043C9.90718 10.3667 9.93024 10.3337 9.96148 10.3096C9.99272 10.2856 10.0306 10.2718 10.07 10.27H10.838C10.8774 10.2697 10.9158 10.2573 10.9479 10.2345C10.98 10.2118 11.0043 10.1797 11.0175 10.1426L11.2614 9.43024C11.2746 9.39294 11.2992 9.36066 11.3316 9.33783C11.364 9.31499 11.4027 9.30273 11.4423 9.30273C11.482 9.30273 11.5207 9.31499 11.5531 9.33783C11.5855 9.36066 11.6101 9.39294 11.6233 9.43024Z" fill="url(#paint5_linear_823_29158)"/>
<path d="M36.6702 9.43024L36.914 10.1426C36.9272 10.1797 36.9515 10.2118 36.9836 10.2345C37.0158 10.2573 37.0541 10.2697 37.0935 10.27H37.8615C37.9009 10.2718 37.9388 10.2856 37.9701 10.3096C38.0013 10.3337 38.0244 10.3667 38.0361 10.4043C38.0479 10.4418 38.0477 10.4821 38.0357 10.5196C38.0237 10.557 38.0005 10.5899 37.9691 10.6137L37.3643 11.0312C37.3306 11.0548 37.3054 11.0886 37.2925 11.1276C37.2795 11.1665 37.2794 11.2086 37.2923 11.2476L37.5275 11.9332C37.5389 11.9707 37.5385 12.0109 37.5263 12.0482C37.5141 12.0855 37.4907 12.1181 37.4593 12.1417C37.4278 12.1653 37.3899 12.1788 37.3506 12.1802C37.3113 12.1816 37.2725 12.1709 37.2395 12.1496L36.5963 11.7072C36.5645 11.6858 36.5271 11.6744 36.4887 11.6744C36.4504 11.6744 36.413 11.6858 36.3812 11.7072L35.739 12.1496C35.706 12.1709 35.6672 12.1816 35.6278 12.1802C35.5885 12.1788 35.5506 12.1653 35.5192 12.1417C35.4878 12.1181 35.4644 12.0855 35.4522 12.0482C35.44 12.0109 35.4396 11.9707 35.451 11.9332L35.6852 11.2476C35.6982 11.2087 35.6982 11.1667 35.6854 11.1277C35.6727 11.0888 35.6477 11.0549 35.6142 11.0312L35.0094 10.6137C34.978 10.5899 34.9547 10.557 34.9427 10.5196C34.9307 10.4821 34.9306 10.4418 34.9423 10.4043C34.9541 10.3667 34.9771 10.3337 35.0084 10.3096C35.0396 10.2856 35.0775 10.2718 35.1169 10.27H35.8849C35.9243 10.2697 35.9627 10.2573 35.9948 10.2345C36.0269 10.2118 36.0512 10.1797 36.0644 10.1426L36.3083 9.43024C36.3215 9.39294 36.346 9.36066 36.3784 9.33783C36.4108 9.31499 36.4495 9.30273 36.4892 9.30273C36.5289 9.30273 36.5676 9.31499 36.6 9.33783C36.6324 9.36066 36.6569 9.39294 36.6702 9.43024Z" fill="#1B2C3E"/>
<path d="M36.6702 9.43024L36.914 10.1426C36.9272 10.1797 36.9515 10.2118 36.9836 10.2345C37.0158 10.2573 37.0541 10.2697 37.0935 10.27H37.8615C37.9009 10.2718 37.9388 10.2856 37.9701 10.3096C38.0013 10.3337 38.0244 10.3667 38.0361 10.4043C38.0479 10.4418 38.0477 10.4821 38.0357 10.5196C38.0237 10.557 38.0005 10.5899 37.9691 10.6137L37.3643 11.0312C37.3306 11.0548 37.3054 11.0886 37.2925 11.1276C37.2795 11.1665 37.2794 11.2086 37.2923 11.2476L37.5275 11.9332C37.5389 11.9707 37.5385 12.0109 37.5263 12.0482C37.5141 12.0855 37.4907 12.1181 37.4593 12.1417C37.4278 12.1653 37.3899 12.1788 37.3506 12.1802C37.3113 12.1816 37.2725 12.1709 37.2395 12.1496L36.5963 11.7072C36.5645 11.6858 36.5271 11.6744 36.4887 11.6744C36.4504 11.6744 36.413 11.6858 36.3812 11.7072L35.739 12.1496C35.706 12.1709 35.6672 12.1816 35.6278 12.1802C35.5885 12.1788 35.5506 12.1653 35.5192 12.1417C35.4878 12.1181 35.4644 12.0855 35.4522 12.0482C35.44 12.0109 35.4396 11.9707 35.451 11.9332L35.6852 11.2476C35.6982 11.2087 35.6982 11.1667 35.6854 11.1277C35.6727 11.0888 35.6477 11.0549 35.6142 11.0312L35.0094 10.6137C34.978 10.5899 34.9547 10.557 34.9427 10.5196C34.9307 10.4821 34.9306 10.4418 34.9423 10.4043C34.9541 10.3667 34.9771 10.3337 35.0084 10.3096C35.0396 10.2856 35.0775 10.2718 35.1169 10.27H35.8849C35.9243 10.2697 35.9627 10.2573 35.9948 10.2345C36.0269 10.2118 36.0512 10.1797 36.0644 10.1426L36.3083 9.43024C36.3215 9.39294 36.346 9.36066 36.3784 9.33783C36.4108 9.31499 36.4495 9.30273 36.4892 9.30273C36.5289 9.30273 36.5676 9.31499 36.6 9.33783C36.6324 9.36066 36.6569 9.39294 36.6702 9.43024Z" fill="url(#paint6_linear_823_29158)"/>
<path d="M22.8241 28.1945C22.6424 28.2375 22.4511 28.2079 22.291 28.112C22.131 28.0161 22.0149 27.8614 21.9678 27.6812C21.9227 27.528 21.8776 27.3758 21.8305 27.2264C19.0782 18.5226 10.8577 16.3107 8.26764 15.6883C8.60268 20.1063 10.0043 23.945 12.698 27.2264C12.9457 27.528 12.8449 28.0049 12.5377 28.2471C12.4574 28.3106 12.364 28.3554 12.2641 28.3783H11.9435C11.7886 28.3371 11.6498 28.2503 11.5451 28.1293C11.2891 27.8459 11.0424 27.5449 10.8049 27.2264C8.50092 24.1518 7.01772 19.551 6.80748 14.9855C6.79692 14.7366 6.80748 14.3947 6.99948 14.2291C7.19148 14.0634 7.5198 14.0989 7.76748 14.1391C7.91148 14.163 11.3512 14.7519 15.0788 16.9159C17.0142 18.0371 18.6011 19.2216 19.9211 20.7459C21.5318 22.6218 22.6921 24.8395 23.3137 27.2302L23.3425 27.3442C23.3865 27.5255 23.3567 27.7168 23.2595 27.8762C23.1623 28.0356 23.0058 28.15 22.8241 28.1945Z" fill="#1B2C3E"/>
<path d="M22.8241 28.1945C22.6424 28.2375 22.4511 28.2079 22.291 28.112C22.131 28.0161 22.0149 27.8614 21.9678 27.6812C21.9227 27.528 21.8776 27.3758 21.8305 27.2264C19.0782 18.5226 10.8577 16.3107 8.26764 15.6883C8.60268 20.1063 10.0043 23.945 12.698 27.2264C12.9457 27.528 12.8449 28.0049 12.5377 28.2471C12.4574 28.3106 12.364 28.3554 12.2641 28.3783H11.9435C11.7886 28.3371 11.6498 28.2503 11.5451 28.1293C11.2891 27.8459 11.0424 27.5449 10.8049 27.2264C8.50092 24.1518 7.01772 19.551 6.80748 14.9855C6.79692 14.7366 6.80748 14.3947 6.99948 14.2291C7.19148 14.0634 7.5198 14.0989 7.76748 14.1391C7.91148 14.163 11.3512 14.7519 15.0788 16.9159C17.0142 18.0371 18.6011 19.2216 19.9211 20.7459C21.5318 22.6218 22.6921 24.8395 23.3137 27.2302L23.3425 27.3442C23.3865 27.5255 23.3567 27.7168 23.2595 27.8762C23.1623 28.0356 23.0058 28.15 22.8241 28.1945Z" fill="url(#paint7_linear_823_29158)"/>
<path d="M15.9526 28.3871C15.8352 28.3871 15.7197 28.358 15.6164 28.3023C15.5132 28.2466 15.4255 28.1662 15.3612 28.0682C14.43 26.654 13.5862 25.2206 13.0217 23.6972C12.1807 21.425 11.837 18.9737 11.7737 16.4009C11.7713 16.3083 11.7872 16.2162 11.8205 16.1298C11.8538 16.0434 11.9038 15.9644 11.9677 15.8972C12.0316 15.8301 12.1082 15.7762 12.193 15.7386C12.2778 15.701 12.3692 15.6804 12.462 15.678C12.5548 15.6756 12.6471 15.6914 12.7338 15.7247C12.8204 15.7579 12.8996 15.8078 12.9669 15.8715C13.0343 15.9353 13.0883 16.0116 13.126 16.0962C13.1638 16.1808 13.1844 16.272 13.1868 16.3645C13.2953 20.4483 14.3945 24.0246 16.5468 27.2945C16.617 27.4008 16.6571 27.5241 16.6627 27.6512C16.6683 27.7784 16.6393 27.9047 16.5788 28.0167C16.5182 28.1287 16.4284 28.2223 16.3188 28.2875C16.2092 28.3528 16.084 28.3871 15.9564 28.3871H15.9526Z" fill="#1B2C3E"/>
<path d="M15.9526 28.3871C15.8352 28.3871 15.7197 28.358 15.6164 28.3023C15.5132 28.2466 15.4255 28.1662 15.3612 28.0682C14.43 26.654 13.5862 25.2206 13.0217 23.6972C12.1807 21.425 11.837 18.9737 11.7737 16.4009C11.7713 16.3083 11.7872 16.2162 11.8205 16.1298C11.8538 16.0434 11.9038 15.9644 11.9677 15.8972C12.0316 15.8301 12.1082 15.7762 12.193 15.7386C12.2778 15.701 12.3692 15.6804 12.462 15.678C12.5548 15.6756 12.6471 15.6914 12.7338 15.7247C12.8204 15.7579 12.8996 15.8078 12.9669 15.8715C13.0343 15.9353 13.0883 16.0116 13.126 16.0962C13.1638 16.1808 13.1844 16.272 13.1868 16.3645C13.2953 20.4483 14.3945 24.0246 16.5468 27.2945C16.617 27.4008 16.6571 27.5241 16.6627 27.6512C16.6683 27.7784 16.6393 27.9047 16.5788 28.0167C16.5182 28.1287 16.4284 28.2223 16.3188 28.2875C16.2092 28.3528 16.084 28.3871 15.9564 28.3871H15.9526Z" fill="url(#paint8_linear_823_29158)"/>
<path d="M36.1494 28.3313C36.0173 28.3305 35.8881 28.2929 35.7763 28.2228C35.6646 28.1526 35.5747 28.0526 35.517 27.9341C35.4593 27.8157 35.4359 27.6834 35.4496 27.5524C35.4633 27.4214 35.5135 27.2968 35.5945 27.1928C38.173 23.9315 39.6476 20.043 39.9836 15.6251C37.3446 16.2589 28.4329 19.0233 26.2834 27.6151C26.2381 27.7965 26.1224 27.9526 25.9617 28.0489C25.801 28.1452 25.6086 28.174 25.4266 28.1288C25.2447 28.0836 25.0883 27.9681 24.9917 27.8079C24.8951 27.6476 24.8663 27.4556 24.9116 27.2742C25.5054 24.8921 26.6569 22.6844 28.2716 20.832C29.5916 19.3086 31.2418 17.9671 33.1772 16.8449C36.9049 14.6848 40.3446 14.0969 40.4886 14.0681C40.7343 14.027 41.0271 14.0423 41.2143 14.207C41.4015 14.3717 41.4562 14.6656 41.4447 14.9146C41.2134 19.9511 39.6207 24.3729 36.7071 28.0584C36.6412 28.1433 36.5567 28.212 36.46 28.2593C36.3633 28.3066 36.257 28.3313 36.1494 28.3313Z" fill="#1B2C3E"/>
<path d="M36.1494 28.3313C36.0173 28.3305 35.8881 28.2929 35.7763 28.2228C35.6646 28.1526 35.5747 28.0526 35.517 27.9341C35.4593 27.8157 35.4359 27.6834 35.4496 27.5524C35.4633 27.4214 35.5135 27.2968 35.5945 27.1928C38.173 23.9315 39.6476 20.043 39.9836 15.6251C37.3446 16.2589 28.4329 19.0233 26.2834 27.6151C26.2381 27.7965 26.1224 27.9526 25.9617 28.0489C25.801 28.1452 25.6086 28.174 25.4266 28.1288C25.2447 28.0836 25.0883 27.9681 24.9917 27.8079C24.8951 27.6476 24.8663 27.4556 24.9116 27.2742C25.5054 24.8921 26.6569 22.6844 28.2716 20.832C29.5916 19.3086 31.2418 17.9671 33.1772 16.8449C36.9049 14.6848 40.3446 14.0969 40.4886 14.0681C40.7343 14.027 41.0271 14.0423 41.2143 14.207C41.4015 14.3717 41.4562 14.6656 41.4447 14.9146C41.2134 19.9511 39.6207 24.3729 36.7071 28.0584C36.6412 28.1433 36.5567 28.212 36.46 28.2593C36.3633 28.3066 36.257 28.3313 36.1494 28.3313Z" fill="url(#paint9_linear_823_29158)"/>
<path d="M32.2968 28.3871C32.1692 28.3871 32.044 28.3528 31.9344 28.2875C31.8248 28.2223 31.735 28.1287 31.6744 28.0167C31.6139 27.9047 31.5849 27.7784 31.5905 27.6512C31.5962 27.5241 31.6362 27.4008 31.7064 27.2945C33.8597 24.0237 34.9599 20.4483 35.0664 16.3645C35.0713 16.1776 35.1504 16.0003 35.2863 15.8715C35.4222 15.7428 35.6038 15.6731 35.7912 15.678C35.9786 15.6828 36.1564 15.7617 36.2855 15.8972C36.4146 16.0328 36.4844 16.214 36.4796 16.4009C36.4267 18.893 35.9639 21.3595 35.1096 23.7019C34.5396 25.2377 33.7938 26.7028 32.8872 28.0682C32.8232 28.1662 32.7357 28.2466 32.6326 28.3023C32.5295 28.358 32.4141 28.3871 32.2968 28.3871Z" fill="#1B2C3E"/>
<path d="M32.2968 28.3871C32.1692 28.3871 32.044 28.3528 31.9344 28.2875C31.8248 28.2223 31.735 28.1287 31.6744 28.0167C31.6139 27.9047 31.5849 27.7784 31.5905 27.6512C31.5962 27.5241 31.6362 27.4008 31.7064 27.2945C33.8597 24.0237 34.9599 20.4483 35.0664 16.3645C35.0713 16.1776 35.1504 16.0003 35.2863 15.8715C35.4222 15.7428 35.6038 15.6731 35.7912 15.678C35.9786 15.6828 36.1564 15.7617 36.2855 15.8972C36.4146 16.0328 36.4844 16.214 36.4796 16.4009C36.4267 18.893 35.9639 21.3595 35.1096 23.7019C34.5396 25.2377 33.7938 26.7028 32.8872 28.0682C32.8232 28.1662 32.7357 28.2466 32.6326 28.3023C32.5295 28.358 32.4141 28.3871 32.2968 28.3871Z" fill="url(#paint10_linear_823_29158)"/>
<path d="M28.7837 28.1977C28.6798 28.198 28.5772 28.1751 28.4832 28.1307C28.13 27.9651 27.8756 27.5562 28.0416 27.2048C28.1424 26.9913 28.2634 26.7787 28.3671 26.5412C29.0708 24.923 29.9828 23.4284 30.1661 21.0566C30.3255 18.9931 29.3981 17.0092 28.1607 15.503C27.677 14.8992 27.0626 14.4123 26.3635 14.0789C25.6644 13.7454 24.8988 13.574 24.1239 13.5774C22.6522 13.5774 21.2948 14.127 20.0381 15.5231C18.8352 16.8636 17.9885 18.7471 18.0672 20.3452C18.2141 23.3182 19.129 25.0858 19.849 26.5317C19.9642 26.7634 20.1197 27.0554 20.2205 27.2699C20.3876 27.6223 20.1178 27.9651 19.7645 28.1317C19.5949 28.2112 19.4006 28.2204 19.2242 28.1572C19.0478 28.094 18.9038 27.9636 18.8237 27.7946C18.7277 27.5935 18.5357 27.4537 18.4205 27.2287C17.6832 25.7475 16.658 23.459 16.6071 20.3796C16.5716 18.4071 17.1178 16.3676 18.984 14.5302C20.4855 13.0527 22.2653 12.168 24.1277 12.168C25.9901 12.168 27.817 13.0068 29.2714 14.5302C30.8352 16.1685 31.7453 18.41 31.6484 20.3796C31.4871 23.6505 30.5453 25.6776 29.808 27.1579C29.6967 27.3829 29.52 27.5926 29.424 27.7937C29.3667 27.9146 29.2761 28.0169 29.1627 28.0884C29.0493 28.1599 28.9179 28.1979 28.7837 28.1977Z" fill="#1B2C3E"/>
<path d="M28.7837 28.1977C28.6798 28.198 28.5772 28.1751 28.4832 28.1307C28.13 27.9651 27.8756 27.5562 28.0416 27.2048C28.1424 26.9913 28.2634 26.7787 28.3671 26.5412C29.0708 24.923 29.9828 23.4284 30.1661 21.0566C30.3255 18.9931 29.3981 17.0092 28.1607 15.503C27.677 14.8992 27.0626 14.4123 26.3635 14.0789C25.6644 13.7454 24.8988 13.574 24.1239 13.5774C22.6522 13.5774 21.2948 14.127 20.0381 15.5231C18.8352 16.8636 17.9885 18.7471 18.0672 20.3452C18.2141 23.3182 19.129 25.0858 19.849 26.5317C19.9642 26.7634 20.1197 27.0554 20.2205 27.2699C20.3876 27.6223 20.1178 27.9651 19.7645 28.1317C19.5949 28.2112 19.4006 28.2204 19.2242 28.1572C19.0478 28.094 18.9038 27.9636 18.8237 27.7946C18.7277 27.5935 18.5357 27.4537 18.4205 27.2287C17.6832 25.7475 16.658 23.459 16.6071 20.3796C16.5716 18.4071 17.1178 16.3676 18.984 14.5302C20.4855 13.0527 22.2653 12.168 24.1277 12.168C25.9901 12.168 27.817 13.0068 29.2714 14.5302C30.8352 16.1685 31.7453 18.41 31.6484 20.3796C31.4871 23.6505 30.5453 25.6776 29.808 27.1579C29.6967 27.3829 29.52 27.5926 29.424 27.7937C29.3667 27.9146 29.2761 28.0169 29.1627 28.0884C29.0493 28.1599 28.9179 28.1979 28.7837 28.1977Z" fill="url(#paint11_linear_823_29158)"/>
<path d="M21.7759 17.3635C21.9364 17.3633 22.0933 17.4106 22.2268 17.4994C22.3604 17.5882 22.4645 17.7145 22.526 17.8623C22.5876 18.0101 22.6038 18.1728 22.5726 18.3299C22.5414 18.4869 22.4642 18.6311 22.3508 18.7444C22.2374 18.8576 22.0929 18.9348 21.9355 18.9661C21.7781 18.9974 21.6149 18.9814 21.4666 18.9202C21.3184 18.859 21.1916 18.7553 21.1024 18.6222C21.0133 18.4891 20.9657 18.3327 20.9657 18.1726C20.9659 17.9583 21.0513 17.7528 21.2032 17.6011C21.3551 17.4494 21.561 17.364 21.7759 17.3635ZM21.7759 16C21.3451 16 20.9239 16.1274 20.5657 16.3661C20.2075 16.6049 19.9283 16.9442 19.7635 17.3412C19.5986 17.7382 19.5555 18.175 19.6395 18.5965C19.7236 19.0179 19.931 19.405 20.2356 19.7089C20.5403 20.0127 20.9284 20.2196 21.3509 20.3035C21.7735 20.3873 22.2115 20.3443 22.6095 20.1798C23.0075 20.0154 23.3477 19.7369 23.587 19.3796C23.8264 19.0223 23.9541 18.6023 23.9541 18.1726C23.9543 17.8873 23.898 17.6047 23.7886 17.341C23.6792 17.0774 23.5187 16.8378 23.3164 16.6361C23.1141 16.4343 22.874 16.2743 22.6096 16.1651C22.3453 16.056 22.062 15.9999 21.7759 16Z" fill="#1B2C3E"/>
<path d="M21.7759 17.3635C21.9364 17.3633 22.0933 17.4106 22.2268 17.4994C22.3604 17.5882 22.4645 17.7145 22.526 17.8623C22.5876 18.0101 22.6038 18.1728 22.5726 18.3299C22.5414 18.4869 22.4642 18.6311 22.3508 18.7444C22.2374 18.8576 22.0929 18.9348 21.9355 18.9661C21.7781 18.9974 21.6149 18.9814 21.4666 18.9202C21.3184 18.859 21.1916 18.7553 21.1024 18.6222C21.0133 18.4891 20.9657 18.3327 20.9657 18.1726C20.9659 17.9583 21.0513 17.7528 21.2032 17.6011C21.3551 17.4494 21.561 17.364 21.7759 17.3635ZM21.7759 16C21.3451 16 20.9239 16.1274 20.5657 16.3661C20.2075 16.6049 19.9283 16.9442 19.7635 17.3412C19.5986 17.7382 19.5555 18.175 19.6395 18.5965C19.7236 19.0179 19.931 19.405 20.2356 19.7089C20.5403 20.0127 20.9284 20.2196 21.3509 20.3035C21.7735 20.3873 22.2115 20.3443 22.6095 20.1798C23.0075 20.0154 23.3477 19.7369 23.587 19.3796C23.8264 19.0223 23.9541 18.6023 23.9541 18.1726C23.9543 17.8873 23.898 17.6047 23.7886 17.341C23.6792 17.0774 23.5187 16.8378 23.3164 16.6361C23.1141 16.4343 22.874 16.2743 22.6096 16.1651C22.3453 16.056 22.062 15.9999 21.7759 16Z" fill="url(#paint12_linear_823_29158)"/>
<path d="M26.4712 17.3635C26.6317 17.3633 26.7886 17.4106 26.9222 17.4994C27.0557 17.5882 27.1598 17.7145 27.2213 17.8623C27.2829 18.0101 27.2991 18.1728 27.2679 18.3299C27.2367 18.4869 27.1595 18.6311 27.0461 18.7444C26.9327 18.8576 26.7882 18.9348 26.6308 18.9661C26.4734 18.9974 26.3102 18.9814 26.162 18.9202C26.0137 18.859 25.8869 18.7553 25.7978 18.6222C25.7086 18.4891 25.661 18.3327 25.661 18.1726C25.6612 17.9583 25.7466 17.7528 25.8985 17.6011C26.0504 17.4494 26.2563 17.364 26.4712 17.3635ZM26.4712 16C26.0404 16 25.6193 16.1274 25.261 16.3661C24.9028 16.6049 24.6236 16.9442 24.4588 17.3412C24.2939 17.7382 24.2508 18.175 24.3348 18.5965C24.4189 19.0179 24.6263 19.405 24.931 19.7089C25.2356 20.0127 25.6237 20.2196 26.0463 20.3035C26.4688 20.3873 26.9068 20.3443 27.3048 20.1798C27.7028 20.0154 28.043 19.7369 28.2824 19.3796C28.5217 19.0223 28.6495 18.6023 28.6495 18.1726C28.6496 17.8873 28.5933 17.6047 28.4839 17.341C28.3745 17.0774 28.214 16.8378 28.0117 16.6361C27.8095 16.4343 27.5693 16.2743 27.3049 16.1651C27.0406 16.056 26.7573 15.9999 26.4712 16Z" fill="#1B2C3E"/>
<path d="M26.4712 17.3635C26.6317 17.3633 26.7886 17.4106 26.9222 17.4994C27.0557 17.5882 27.1598 17.7145 27.2213 17.8623C27.2829 18.0101 27.2991 18.1728 27.2679 18.3299C27.2367 18.4869 27.1595 18.6311 27.0461 18.7444C26.9327 18.8576 26.7882 18.9348 26.6308 18.9661C26.4734 18.9974 26.3102 18.9814 26.162 18.9202C26.0137 18.859 25.8869 18.7553 25.7978 18.6222C25.7086 18.4891 25.661 18.3327 25.661 18.1726C25.6612 17.9583 25.7466 17.7528 25.8985 17.6011C26.0504 17.4494 26.2563 17.364 26.4712 17.3635ZM26.4712 16C26.0404 16 25.6193 16.1274 25.261 16.3661C24.9028 16.6049 24.6236 16.9442 24.4588 17.3412C24.2939 17.7382 24.2508 18.175 24.3348 18.5965C24.4189 19.0179 24.6263 19.405 24.931 19.7089C25.2356 20.0127 25.6237 20.2196 26.0463 20.3035C26.4688 20.3873 26.9068 20.3443 27.3048 20.1798C27.7028 20.0154 28.043 19.7369 28.2824 19.3796C28.5217 19.0223 28.6495 18.6023 28.6495 18.1726C28.6496 17.8873 28.5933 17.6047 28.4839 17.341C28.3745 17.0774 28.214 16.8378 28.0117 16.6361C27.8095 16.4343 27.5693 16.2743 27.3049 16.1651C27.0406 16.056 26.7573 15.9999 26.4712 16Z" fill="url(#paint13_linear_823_29158)"/>
<path d="M24.1258 21.264C23.9705 21.2637 23.8213 21.2039 23.7089 21.097C23.5965 20.99 23.5296 20.8442 23.522 20.6895C23.4903 20.2737 23.4228 19.8614 23.3204 19.4571C23.0775 18.4719 22.2298 16.9954 21.0874 16.0043C19.8529 14.9329 18.4647 14.593 16.3268 14.795C16.0772 14.8189 15.7143 14.863 15.6029 14.638C15.4916 14.4129 15.6548 13.9677 15.8247 13.7829C15.9946 13.5981 17.7082 11.9512 24.1268 11.9512C30.5453 11.9512 32.257 13.5962 32.4279 13.7791C32.5988 13.962 32.7005 14.4149 32.5892 14.6408C32.4778 14.8668 32.1764 14.817 31.9258 14.7931C29.7888 14.591 28.2711 15.0037 27.0365 16.0761C25.0695 17.7834 24.7325 20.6598 24.7325 20.6875C24.7251 20.843 24.6579 20.9896 24.545 21.097C24.432 21.2043 24.2819 21.2641 24.1258 21.264ZM20.498 13.9409C21.2381 14.2674 21.8554 14.7557 22.4785 15.2996C23.4298 16.1288 23.7572 16.6583 24.1258 17.5804C24.4954 16.6583 24.9533 15.9737 25.9047 15.1435C26.6093 14.5288 27.1392 14.0903 28.2356 13.8413C28.5428 13.7714 28.2039 13.4353 27.4839 13.3453C26.369 13.212 25.2468 13.1481 24.1239 13.1538C22.3911 13.1538 21.2861 13.2496 20.3713 13.4037C20.0343 13.466 20.161 13.7944 20.498 13.9409Z" fill="#1B2C3E"/>
<path d="M24.1258 21.264C23.9705 21.2637 23.8213 21.2039 23.7089 21.097C23.5965 20.99 23.5296 20.8442 23.522 20.6895C23.4903 20.2737 23.4228 19.8614 23.3204 19.4571C23.0775 18.4719 22.2298 16.9954 21.0874 16.0043C19.8529 14.9329 18.4647 14.593 16.3268 14.795C16.0772 14.8189 15.7143 14.863 15.6029 14.638C15.4916 14.4129 15.6548 13.9677 15.8247 13.7829C15.9946 13.5981 17.7082 11.9512 24.1268 11.9512C30.5453 11.9512 32.257 13.5962 32.4279 13.7791C32.5988 13.962 32.7005 14.4149 32.5892 14.6408C32.4778 14.8668 32.1764 14.817 31.9258 14.7931C29.7888 14.591 28.2711 15.0037 27.0365 16.0761C25.0695 17.7834 24.7325 20.6598 24.7325 20.6875C24.7251 20.843 24.6579 20.9896 24.545 21.097C24.432 21.2043 24.2819 21.2641 24.1258 21.264ZM20.498 13.9409C21.2381 14.2674 21.8554 14.7557 22.4785 15.2996C23.4298 16.1288 23.7572 16.6583 24.1258 17.5804C24.4954 16.6583 24.9533 15.9737 25.9047 15.1435C26.6093 14.5288 27.1392 14.0903 28.2356 13.8413C28.5428 13.7714 28.2039 13.4353 27.4839 13.3453C26.369 13.212 25.2468 13.1481 24.1239 13.1538C22.3911 13.1538 21.2861 13.2496 20.3713 13.4037C20.0343 13.466 20.161 13.7944 20.498 13.9409Z" fill="url(#paint14_linear_823_29158)"/>
<path d="M0.672 28.8711C0.663383 28.9843 0.641473 29.0962 0.60672 29.2043H2.02848C2.08704 30.1685 1.79808 31.9687 1.12032 33.2556C0.76992 33.9258 0.54432 33.9957 0.33792 34.0982C0.278747 34.0741 0.221328 34.0459 0.16608 34.0139L0 34.2054L0.90432 35.1131C0.90432 35.1131 1.98912 33.6951 2.2224 32.0663C2.3623 31.1187 2.43193 30.1621 2.43072 29.2043H2.96736C3.16896 29.2043 3.6096 29.1306 3.63936 29.9023C3.66912 30.6741 3.92736 33.0152 3.96 33.4959C3.99264 33.9766 4.07712 34.2236 3.71232 34.4639C3.34752 34.7043 2.66784 34.6554 2.66784 34.6554V35.0049H5.52192V34.643C5.52192 34.643 5.06784 34.8469 4.9632 33.5725C4.85856 32.298 4.65408 30.4127 4.63872 30.0929C4.62336 29.7731 4.58112 29.2014 4.92672 29.2014V28.8711H0.672Z" fill="#1B2C3E"/>
<path d="M0.672 28.8711C0.663383 28.9843 0.641473 29.0962 0.60672 29.2043H2.02848C2.08704 30.1685 1.79808 31.9687 1.12032 33.2556C0.76992 33.9258 0.54432 33.9957 0.33792 34.0982C0.278747 34.0741 0.221328 34.0459 0.16608 34.0139L0 34.2054L0.90432 35.1131C0.90432 35.1131 1.98912 33.6951 2.2224 32.0663C2.3623 31.1187 2.43193 30.1621 2.43072 29.2043H2.96736C3.16896 29.2043 3.6096 29.1306 3.63936 29.9023C3.66912 30.6741 3.92736 33.0152 3.96 33.4959C3.99264 33.9766 4.07712 34.2236 3.71232 34.4639C3.34752 34.7043 2.66784 34.6554 2.66784 34.6554V35.0049H5.52192V34.643C5.52192 34.643 5.06784 34.8469 4.9632 33.5725C4.85856 32.298 4.65408 30.4127 4.63872 30.0929C4.62336 29.7731 4.58112 29.2014 4.92672 29.2014V28.8711H0.672Z" fill="url(#paint15_linear_823_29158)"/>
<path d="M13.0314 28.7395C13.0314 28.7395 10.809 29.6817 10.4567 31.5555H8.74216V29.7669C8.74216 29.1407 9.38728 29.201 9.5524 29.201V28.8697H7.25992C7.23847 28.7367 7.1745 28.6141 7.07752 28.5202C6.91048 28.346 6.45064 28.3823 6.30952 28.5786C6.1684 28.7749 6.32392 29.088 6.68104 29.0957C6.94621 29.0883 7.20608 29.1706 7.41832 29.3293C7.64488 29.4739 7.72552 29.6587 7.72552 30.0953V34.1025C7.72552 34.7287 7.0804 34.6675 6.91528 34.6675C6.91528 34.7939 6.91528 34.9978 6.91528 34.9978H9.202C9.22397 35.1307 9.28787 35.2531 9.3844 35.3473C9.5524 35.5216 10.0122 35.4852 10.1582 35.2889C10.3041 35.0926 10.1438 34.7795 9.78664 34.7718C9.52142 34.7786 9.26154 34.6967 9.0484 34.5392C8.82184 34.3927 8.74216 34.2088 8.74216 33.7731V32.3848H10.427C10.642 34.3534 12.7838 35.1079 12.7838 35.1079C12.7838 35.1079 15.2644 34.6081 15.2644 32.221C15.2644 29.8339 13.0314 28.7395 13.0314 28.7395ZM13.9914 34.1619C13.3934 34.1619 12.3124 34.0087 11.5607 32.8003C10.809 31.5919 10.9041 29.9172 12.371 29.9172C13.6266 29.9172 14.6049 31.41 14.6049 32.3713C14.6049 33.3327 14.5924 34.1619 13.9905 34.1619H13.9914Z" fill="#1B2C3E"/>
<path d="M13.0314 28.7395C13.0314 28.7395 10.809 29.6817 10.4567 31.5555H8.74216V29.7669C8.74216 29.1407 9.38728 29.201 9.5524 29.201V28.8697H7.25992C7.23847 28.7367 7.1745 28.6141 7.07752 28.5202C6.91048 28.346 6.45064 28.3823 6.30952 28.5786C6.1684 28.7749 6.32392 29.088 6.68104 29.0957C6.94621 29.0883 7.20608 29.1706 7.41832 29.3293C7.64488 29.4739 7.72552 29.6587 7.72552 30.0953V34.1025C7.72552 34.7287 7.0804 34.6675 6.91528 34.6675C6.91528 34.7939 6.91528 34.9978 6.91528 34.9978H9.202C9.22397 35.1307 9.28787 35.2531 9.3844 35.3473C9.5524 35.5216 10.0122 35.4852 10.1582 35.2889C10.3041 35.0926 10.1438 34.7795 9.78664 34.7718C9.52142 34.7786 9.26154 34.6967 9.0484 34.5392C8.82184 34.3927 8.74216 34.2088 8.74216 33.7731V32.3848H10.427C10.642 34.3534 12.7838 35.1079 12.7838 35.1079C12.7838 35.1079 15.2644 34.6081 15.2644 32.221C15.2644 29.8339 13.0314 28.7395 13.0314 28.7395ZM13.9914 34.1619C13.3934 34.1619 12.3124 34.0087 11.5607 32.8003C10.809 31.5919 10.9041 29.9172 12.371 29.9172C13.6266 29.9172 14.6049 31.41 14.6049 32.3713C14.6049 33.3327 14.5924 34.1619 13.9905 34.1619H13.9914Z" fill="url(#paint16_linear_823_29158)"/>
<path d="M26.0221 28.7383C26.0221 28.7383 23.3984 29.8509 23.3984 32.0609C23.3984 34.2708 25.7744 35.1077 25.7744 35.1077C25.7744 35.1077 28.2551 34.6069 28.2551 32.2198C28.2551 29.8327 26.0221 28.7383 26.0221 28.7383ZM26.9821 34.1607C26.384 34.1607 25.3031 34.0075 24.5514 32.7991C23.7997 31.5907 23.8948 29.916 25.3616 29.916C26.6173 29.916 27.5956 31.4088 27.5956 32.3701C27.5956 33.3315 27.5792 34.1607 26.9802 34.1607H26.9821Z" fill="#1B2C3E"/>
<path d="M26.0221 28.7383C26.0221 28.7383 23.3984 29.8509 23.3984 32.0609C23.3984 34.2708 25.7744 35.1077 25.7744 35.1077C25.7744 35.1077 28.2551 34.6069 28.2551 32.2198C28.2551 29.8327 26.0221 28.7383 26.0221 28.7383ZM26.9821 34.1607C26.384 34.1607 25.3031 34.0075 24.5514 32.7991C23.7997 31.5907 23.8948 29.916 25.3616 29.916C26.6173 29.916 27.5956 31.4088 27.5956 32.3701C27.5956 33.3315 27.5792 34.1607 26.9802 34.1607H26.9821Z" fill="url(#paint17_linear_823_29158)"/>
<path d="M16.5 28.8613H18.036L19.3646 32.0623C19.3646 32.0623 20.3246 29.8887 20.4082 29.7135C20.4917 29.5383 20.4936 29.2108 20.0798 29.2108V28.8613H22.2043V29.2041C22.2043 29.2041 21.7589 29.2185 21.7589 29.6331V33.7159C21.7589 33.9974 21.7781 34.7156 22.2744 34.7156V35.0028H20.2546V34.6524C20.2546 34.6524 20.7163 34.6064 20.7163 34.1621V30.244L19.0843 34.2655L17.4053 30.4575V34.2071C17.4053 34.6514 17.3026 35.3715 16.9886 35.8349C16.6747 36.2983 16.5509 35.8349 16.5509 35.8349C16.5509 35.8349 16.8389 35.3475 16.8389 34.5461V30.0046C16.8389 29.7432 16.7506 29.2913 16.5029 29.2913L16.5 28.8613Z" fill="#1B2C3E"/>
<path d="M16.5 28.8613H18.036L19.3646 32.0623C19.3646 32.0623 20.3246 29.8887 20.4082 29.7135C20.4917 29.5383 20.4936 29.2108 20.0798 29.2108V28.8613H22.2043V29.2041C22.2043 29.2041 21.7589 29.2185 21.7589 29.6331V33.7159C21.7589 33.9974 21.7781 34.7156 22.2744 34.7156V35.0028H20.2546V34.6524C20.2546 34.6524 20.7163 34.6064 20.7163 34.1621V30.244L19.0843 34.2655L17.4053 30.4575V34.2071C17.4053 34.6514 17.3026 35.3715 16.9886 35.8349C16.6747 36.2983 16.5509 35.8349 16.5509 35.8349C16.5509 35.8349 16.8389 35.3475 16.8389 34.5461V30.0046C16.8389 29.7432 16.7506 29.2913 16.5029 29.2913L16.5 28.8613Z" fill="url(#paint18_linear_823_29158)"/>
<path d="M34.4308 32.9676C34.4308 32.9676 33.8663 34.2593 32.5108 34.2593C31.1553 34.2593 30.6522 33.0069 30.6522 31.5783C30.6522 30.1497 31.45 29.4622 32.2679 29.4622C33.0858 29.4622 33.3239 30.098 33.2279 30.2923L33.4132 30.5422L34.3434 29.6719C34.3434 29.6719 33.6023 28.7383 32.4714 28.7383C31.3406 28.7383 29.5703 29.5761 29.5703 32.0388C29.5703 33.0155 30.1252 35.1077 32.1402 35.1077C33.6292 35.1077 34.6804 33.2386 34.6804 33.2386L34.4308 32.9676Z" fill="#1B2C3E"/>
<path d="M34.4308 32.9676C34.4308 32.9676 33.8663 34.2593 32.5108 34.2593C31.1553 34.2593 30.6522 33.0069 30.6522 31.5783C30.6522 30.1497 31.45 29.4622 32.2679 29.4622C33.0858 29.4622 33.3239 30.098 33.2279 30.2923L33.4132 30.5422L34.3434 29.6719C34.3434 29.6719 33.6023 28.7383 32.4714 28.7383C31.3406 28.7383 29.5703 29.5761 29.5703 32.0388C29.5703 33.0155 30.1252 35.1077 32.1402 35.1077C33.6292 35.1077 34.6804 33.2386 34.6804 33.2386L34.4308 32.9676Z" fill="url(#paint19_linear_823_29158)"/>
<path d="M38.8091 29.978C39.0501 30.0345 39.5589 30.2796 39.7528 30.541C39.8795 30.4452 40.1713 29.6582 41.0622 29.6582C41.1871 29.6497 41.3116 29.6802 41.4184 29.7453C41.8984 30.158 42.0548 31.9476 40.9749 31.9476C40.7662 31.9368 40.5623 31.8809 40.3775 31.7837C40.1926 31.6864 40.0312 31.5503 39.9045 31.3846C39.7873 31.6182 39.2037 32.5939 38.9329 33.2038C38.6622 33.8138 38.2907 34.777 38.3051 34.8422C38.3195 34.9073 38.5029 35.1122 38.5461 35.1122C38.5893 35.1122 38.8235 34.8058 39.3563 34.8058C39.8891 34.8058 40.7579 35.1122 41.4155 35.1122C42.0731 35.1122 42.8315 34.7483 43.1157 32.9645C43.0346 32.929 42.9484 32.9066 42.8603 32.8984C42.8603 32.8984 42.6337 34.0197 41.8456 34.0197C41.4001 34.0197 41.1227 33.7324 40.4949 33.7324C39.9697 33.7324 39.3784 34.1403 39.3784 34.1403C39.3784 34.1403 39.9256 32.1889 41.211 32.1889C41.3879 32.1889 41.563 32.2243 41.7259 32.2931C41.8889 32.3618 42.0363 32.4625 42.1595 32.5891C42.1595 32.5891 42.6779 31.8394 42.6779 31.0676C42.6647 30.6318 42.5138 30.2112 42.2468 29.8659C41.8628 29.3738 41.2293 28.9869 40.5688 28.6719C40.5688 28.6652 39.2977 29.3623 38.8091 29.978Z" fill="#1B2C3E"/>
<path d="M38.8091 29.978C39.0501 30.0345 39.5589 30.2796 39.7528 30.541C39.8795 30.4452 40.1713 29.6582 41.0622 29.6582C41.1871 29.6497 41.3116 29.6802 41.4184 29.7453C41.8984 30.158 42.0548 31.9476 40.9749 31.9476C40.7662 31.9368 40.5623 31.8809 40.3775 31.7837C40.1926 31.6864 40.0312 31.5503 39.9045 31.3846C39.7873 31.6182 39.2037 32.5939 38.9329 33.2038C38.6622 33.8138 38.2907 34.777 38.3051 34.8422C38.3195 34.9073 38.5029 35.1122 38.5461 35.1122C38.5893 35.1122 38.8235 34.8058 39.3563 34.8058C39.8891 34.8058 40.7579 35.1122 41.4155 35.1122C42.0731 35.1122 42.8315 34.7483 43.1157 32.9645C43.0346 32.929 42.9484 32.9066 42.8603 32.8984C42.8603 32.8984 42.6337 34.0197 41.8456 34.0197C41.4001 34.0197 41.1227 33.7324 40.4949 33.7324C39.9697 33.7324 39.3784 34.1403 39.3784 34.1403C39.3784 34.1403 39.9256 32.1889 41.211 32.1889C41.3879 32.1889 41.563 32.2243 41.7259 32.2931C41.8889 32.3618 42.0363 32.4625 42.1595 32.5891C42.1595 32.5891 42.6779 31.8394 42.6779 31.0676C42.6647 30.6318 42.5138 30.2112 42.2468 29.8659C41.8628 29.3738 41.2293 28.9869 40.5688 28.6719C40.5688 28.6652 39.2977 29.3623 38.8091 29.978Z" fill="url(#paint20_linear_823_29158)"/>
<path d="M43.6919 29.9768C43.9329 30.0333 44.4407 30.2784 44.6356 30.5398C44.7623 30.4441 45.0541 29.657 45.945 29.657C46.0696 29.6485 46.1938 29.6789 46.3002 29.7441C46.7802 30.1568 46.9377 31.9464 45.8567 31.9464C45.3767 31.9464 44.9226 31.5979 44.7863 31.3834C44.6701 31.617 44.0855 32.5927 43.8157 33.2027C43.546 33.8126 43.1735 34.7759 43.1879 34.841C43.2023 34.9061 43.3847 35.111 43.4289 35.111C43.473 35.111 43.7063 34.8046 44.2391 34.8046C44.7719 34.8046 45.6407 35.111 46.2973 35.111C46.954 35.111 47.7105 34.7443 47.9985 32.9604C47.9174 32.9249 47.8312 32.9026 47.7431 32.8944C47.7431 32.8944 47.5165 34.0156 46.7284 34.0156C46.2829 34.0156 46.0055 33.7284 45.3777 33.7284C44.8525 33.7284 44.2612 34.1363 44.2612 34.1363C44.2612 34.1363 44.8084 32.1848 46.0929 32.1848C46.2699 32.185 46.4451 32.2204 46.6082 32.2892C46.7712 32.3579 46.9189 32.4585 47.0423 32.5851C47.0423 32.5851 47.5607 31.8354 47.5607 31.0636C47.5492 30.6271 47.4001 30.2052 47.1345 29.8581C46.7505 29.3659 46.1169 28.9791 45.4554 28.6641C45.4506 28.6641 44.1805 29.3611 43.6919 29.9768Z" fill="#1B2C3E"/>
<path d="M43.6919 29.9768C43.9329 30.0333 44.4407 30.2784 44.6356 30.5398C44.7623 30.4441 45.0541 29.657 45.945 29.657C46.0696 29.6485 46.1938 29.6789 46.3002 29.7441C46.7802 30.1568 46.9377 31.9464 45.8567 31.9464C45.3767 31.9464 44.9226 31.5979 44.7863 31.3834C44.6701 31.617 44.0855 32.5927 43.8157 33.2027C43.546 33.8126 43.1735 34.7759 43.1879 34.841C43.2023 34.9061 43.3847 35.111 43.4289 35.111C43.473 35.111 43.7063 34.8046 44.2391 34.8046C44.7719 34.8046 45.6407 35.111 46.2973 35.111C46.954 35.111 47.7105 34.7443 47.9985 32.9604C47.9174 32.9249 47.8312 32.9026 47.7431 32.8944C47.7431 32.8944 47.5165 34.0156 46.7284 34.0156C46.2829 34.0156 46.0055 33.7284 45.3777 33.7284C44.8525 33.7284 44.2612 34.1363 44.2612 34.1363C44.2612 34.1363 44.8084 32.1848 46.0929 32.1848C46.2699 32.185 46.4451 32.2204 46.6082 32.2892C46.7712 32.3579 46.9189 32.4585 47.0423 32.5851C47.0423 32.5851 47.5607 31.8354 47.5607 31.0636C47.5492 30.6271 47.4001 30.2052 47.1345 29.8581C46.7505 29.3659 46.1169 28.9791 45.4554 28.6641C45.4506 28.6641 44.1805 29.3611 43.6919 29.9768Z" fill="url(#paint21_linear_823_29158)"/>
<path d="M42.9866 35.7773V35.8827C42.746 36.2401 42.4954 36.589 42.2349 36.9292H5.69732C5.44132 36.5973 5.19716 36.258 4.96484 35.9114V35.7773H42.9866Z" fill="#1B2C3E"/>
<path d="M42.9866 35.7773V35.8827C42.746 36.2401 42.4954 36.589 42.2349 36.9292H5.69732C5.44132 36.5973 5.19716 36.258 4.96484 35.9114V35.7773H42.9866Z" fill="url(#paint22_linear_823_29158)"/>
<path d="M46.5366 27.2266C46.4649 27.6147 46.3837 27.9977 46.2928 28.3756H1.63933C1.54845 27.9926 1.46685 27.6096 1.39453 27.2266H46.5366Z" fill="#1B2C3E"/>
<path d="M46.5366 27.2266C46.4649 27.6147 46.3837 27.9977 46.2928 28.3756H1.63933C1.54845 27.9926 1.46685 27.6096 1.39453 27.2266H46.5366Z" fill="url(#paint23_linear_823_29158)"/>
</g>
<defs>
<linearGradient id="paint0_linear_823_29158" x1="16.375" y1="39.3172" x2="31.8759" y2="39.3172" gradientUnits="userSpaceOnUse">
<stop stop-color="#1B2C3E"/>
<stop offset="1" stop-color="#9763D9"/>
</linearGradient>
<linearGradient id="paint1_linear_823_29158" x1="1.00781" y1="22.9987" x2="46.9291" y2="22.9987" gradientUnits="userSpaceOnUse">
<stop stop-color="#1B2C3E"/>
<stop offset="1" stop-color="#9763D9"/>
</linearGradient>
<linearGradient id="paint2_linear_823_29158" x1="9.20703" y1="7.58611" x2="38.9238" y2="7.58612" gradientUnits="userSpaceOnUse">
<stop stop-color="#1B2C3E"/>
<stop offset="1" stop-color="#9763D9"/>
</linearGradient>
<linearGradient id="paint3_linear_823_29158" x1="18.6484" y1="4.4309" x2="29.4196" y2="4.4309" gradientUnits="userSpaceOnUse">
<stop stop-color="#1B2C3E"/>
<stop offset="1" stop-color="#9763D9"/>
</linearGradient>
<linearGradient id="paint4_linear_823_29158" x1="22.5273" y1="3.3608" x2="25.6424" y2="3.3608" gradientUnits="userSpaceOnUse">
<stop stop-color="#1B2C3E"/>
<stop offset="1" stop-color="#9763D9"/>
</linearGradient>
<linearGradient id="paint5_linear_823_29158" x1="9.88672" y1="10.7415" x2="12.998" y2="10.7415" gradientUnits="userSpaceOnUse">
<stop stop-color="#1B2C3E"/>
<stop offset="1" stop-color="#9763D9"/>
</linearGradient>
<linearGradient id="paint6_linear_823_29158" x1="34.9336" y1="10.7415" x2="38.0448" y2="10.7415" gradientUnits="userSpaceOnUse">
<stop stop-color="#1B2C3E"/>
<stop offset="1" stop-color="#9763D9"/>
</linearGradient>
<linearGradient id="paint7_linear_823_29158" x1="6.80469" y1="21.2419" x2="23.3624" y2="21.2419" gradientUnits="userSpaceOnUse">
<stop stop-color="#1B2C3E"/>
<stop offset="1" stop-color="#9763D9"/>
</linearGradient>
<linearGradient id="paint8_linear_823_29158" x1="11.7734" y1="22.0324" x2="16.6634" y2="22.0324" gradientUnits="userSpaceOnUse">
<stop stop-color="#1B2C3E"/>
<stop offset="1" stop-color="#9763D9"/>
</linearGradient>
<linearGradient id="paint9_linear_823_29158" x1="24.8906" y1="21.1901" x2="41.4462" y2="21.1901" gradientUnits="userSpaceOnUse">
<stop stop-color="#1B2C3E"/>
<stop offset="1" stop-color="#9763D9"/>
</linearGradient>
<linearGradient id="paint10_linear_823_29158" x1="31.5898" y1="22.0324" x2="36.4798" y2="22.0324" gradientUnits="userSpaceOnUse">
<stop stop-color="#1B2C3E"/>
<stop offset="1" stop-color="#9763D9"/>
</linearGradient>
<linearGradient id="paint11_linear_823_29158" x1="16.6055" y1="20.1834" x2="31.6554" y2="20.1834" gradientUnits="userSpaceOnUse">
<stop stop-color="#1B2C3E"/>
<stop offset="1" stop-color="#9763D9"/>
</linearGradient>
<linearGradient id="paint12_linear_823_29158" x1="19.5977" y1="18.1726" x2="23.9541" y2="18.1726" gradientUnits="userSpaceOnUse">
<stop stop-color="#1B2C3E"/>
<stop offset="1" stop-color="#9763D9"/>
</linearGradient>
<linearGradient id="paint13_linear_823_29158" x1="24.293" y1="18.1726" x2="28.6495" y2="18.1726" gradientUnits="userSpaceOnUse">
<stop stop-color="#1B2C3E"/>
<stop offset="1" stop-color="#9763D9"/>
</linearGradient>
<linearGradient id="paint14_linear_823_29158" x1="15.5664" y1="16.6076" x2="32.6358" y2="16.6076" gradientUnits="userSpaceOnUse">
<stop stop-color="#1B2C3E"/>
<stop offset="1" stop-color="#9763D9"/>
</linearGradient>
<linearGradient id="paint15_linear_823_29158" x1="4.11415e-08" y1="31.9921" x2="5.52192" y2="31.9921" gradientUnits="userSpaceOnUse">
<stop stop-color="#1B2C3E"/>
<stop offset="1" stop-color="#9763D9"/>
</linearGradient>
<linearGradient id="paint16_linear_823_29158" x1="6.25781" y1="31.9338" x2="15.2644" y2="31.9338" gradientUnits="userSpaceOnUse">
<stop stop-color="#1B2C3E"/>
<stop offset="1" stop-color="#9763D9"/>
</linearGradient>
<linearGradient id="paint17_linear_823_29158" x1="23.3984" y1="31.923" x2="28.2551" y2="31.923" gradientUnits="userSpaceOnUse">
<stop stop-color="#1B2C3E"/>
<stop offset="1" stop-color="#9763D9"/>
</linearGradient>
<linearGradient id="paint18_linear_823_29158" x1="16.5" y1="32.4511" x2="22.2744" y2="32.4511" gradientUnits="userSpaceOnUse">
<stop stop-color="#1B2C3E"/>
<stop offset="1" stop-color="#9763D9"/>
</linearGradient>
<linearGradient id="paint19_linear_823_29158" x1="29.5703" y1="31.923" x2="34.6804" y2="31.923" gradientUnits="userSpaceOnUse">
<stop stop-color="#1B2C3E"/>
<stop offset="1" stop-color="#9763D9"/>
</linearGradient>
<linearGradient id="paint20_linear_823_29158" x1="38.3047" y1="31.892" x2="43.1157" y2="31.892" gradientUnits="userSpaceOnUse">
<stop stop-color="#1B2C3E"/>
<stop offset="1" stop-color="#9763D9"/>
</linearGradient>
<linearGradient id="paint21_linear_823_29158" x1="43.1875" y1="31.8875" x2="47.9985" y2="31.8875" gradientUnits="userSpaceOnUse">
<stop stop-color="#1B2C3E"/>
<stop offset="1" stop-color="#9763D9"/>
</linearGradient>
<linearGradient id="paint22_linear_823_29158" x1="4.96484" y1="36.3533" x2="42.9866" y2="36.3533" gradientUnits="userSpaceOnUse">
<stop stop-color="#1B2C3E"/>
<stop offset="1" stop-color="#9763D9"/>
</linearGradient>
<linearGradient id="paint23_linear_823_29158" x1="1.39453" y1="27.8011" x2="46.5366" y2="27.8011" gradientUnits="userSpaceOnUse">
<stop stop-color="#1B2C3E"/>
<stop offset="1" stop-color="#9763D9"/>
</linearGradient>
<clipPath id="clip0_823_29158">
<rect width="48" height="46" fill="white"/>
</clipPath>
</defs>
</svg>
