<svg width="24" height="24" viewBox="0 0 24 24" fill="none" xmlns="http://www.w3.org/2000/svg">
<circle opacity="0.24" cx="12" cy="12" r="11" stroke="#1B2C3E" stroke-width="2"/>
<path d="M24 12C24 14.7189 23.0767 17.3572 21.3812 19.4828C19.6858 21.6084 17.3188 23.0952 14.6679 23.6997C12.0171 24.3042 9.23951 23.9905 6.7902 22.8101C4.34089 21.6297 2.36505 19.6525 1.18632 17.2023C0.00759536 14.7522 -0.304139 11.9744 0.302182 9.32399C0.908503 6.67354 2.39693 4.30756 4.52367 2.6136C6.6504 0.919643 9.28936 -0.00187189 12.0083 2.85261e-06C14.7272 0.00187759 17.3649 0.927031 19.4893 2.62392L18.0888 4.37727C16.3616 2.9977 14.2172 2.24555 12.0067 2.24403C9.79626 2.24251 7.65079 2.99169 5.92176 4.36888C4.19273 5.74606 2.98264 7.6696 2.4897 9.82441C1.99676 11.9792 2.2502 14.2376 3.2085 16.2295C4.16681 18.2214 5.77316 19.8289 7.76444 20.7886C9.75573 21.7483 12.0139 22.0033 14.169 21.5118C16.3242 21.0203 18.2486 19.8116 19.6269 18.0835C21.0053 16.3554 21.756 14.2105 21.756 12H24Z" fill="#1B2C3E"/>
</svg>
